<?xml version="1.0" standalone="no"?>
<!DOCTYPE svg PUBLIC "-//W3C//DTD SVG 20010904//EN"
 "http://www.w3.org/TR/2001/REC-SVG-20010904/DTD/svg10.dtd">
<svg version="1.0" xmlns="http://www.w3.org/2000/svg"
 width="260.000000pt" height="260.000000pt" viewBox="0 0 260.000000 260.000000"
 preserveAspectRatio="xMidYMid meet">
<metadata>
Created by potrace 1.11, written by Peter Selinger 2001-2013
</metadata>
<g transform="translate(0.000000,260.000000) scale(0.100000,-0.100000)"
fill="#000000" stroke="none">
<path d="M700 2306 c-199 -58 -323 -235 -307 -438 5 -59 14 -88 47 -153 80
-156 225 -236 405 -222 150 12 280 107 344 253 22 51 25 73 25 159 0 77 -5
111 -20 148 -45 108 -137 199 -243 241 -59 23 -193 29 -251 12z"/>
<path d="M1638 2301 c-203 -65 -324 -261 -287 -466 30 -167 152 -296 318 -335
55 -13 188 -9 213 6 7 5 19 9 26 10 28 5 109 60 151 103 68 71 104 157 109
262 5 107 -12 173 -68 257 -45 67 -113 122 -193 154 -71 29 -193 33 -269 9z"/>
<path d="M373 1449 c-141 -13 -241 -105 -299 -275 -27 -79 -27 -79 -29 -404
l-1 -325 30 -31 c28 -28 111 -67 168 -78 13 -2 55 -11 93 -19 66 -14 98 -18
270 -33 171 -15 554 -2 570 19 3 4 2 5 -1 3 -3 -2 -33 3 -67 11 -34 8 -66 16
-72 17 -45 8 -138 53 -161 77 l-29 30 1 317 c0 341 4 378 54 487 33 72 86 135
150 178 l47 32 -326 0 c-179 0 -359 -3 -398 -6z"/>
<path d="M1276 1442 c-94 -24 -176 -99 -226 -207 -49 -107 -53 -145 -53 -477
0 -351 -3 -339 85 -382 222 -107 800 -131 1238 -50 48 8 117 32 166 56 72 35
72 33 69 393 -1 176 -5 332 -9 346 -34 144 -117 258 -223 306 l-54 25 -471 1
c-357 2 -484 -1 -522 -11z"/>
</g>
</svg>
