<?xml version="1.0" standalone="no"?>
<!DOCTYPE svg PUBLIC "-//W3C//DTD SVG 20010904//EN"
 "http://www.w3.org/TR/2001/REC-SVG-20010904/DTD/svg10.dtd">
<svg version="1.0" xmlns="http://www.w3.org/2000/svg"
 width="557.000000pt" height="557.000000pt" viewBox="0 0 557.000000 557.000000"
 preserveAspectRatio="xMidYMid meet">
<metadata>
Created by potrace 1.11, written by Peter Selinger 2001-2013
</metadata>
<g transform="translate(0.000000,557.000000) scale(0.100000,-0.100000)"
fill="#000000" stroke="none">
<path d="M2440 2822 l0 -1409 365 0 365 0 1 31 c0 17 1 280 1 585 1 304 5 574
9 600 19 100 81 190 161 232 78 40 204 39 284 -4 35 -18 87 -74 107 -115 39
-78 41 -109 42 -724 0 -392 3 -598 10 -599 14 0 643 -1 687 0 l36 1 0 723 c0
397 -5 754 -10 792 -51 388 -309 614 -701 613 -230 0 -415 -88 -579 -274 l-45
-51 0 501 -1 501 -366 3 -366 2 0 -1408z"/>
<path d="M80 3451 c10 -25 34 -86 55 -136 20 -49 38 -94 39 -100 2 -5 8 -21
13 -35 6 -14 36 -89 66 -166 67 -169 384 -970 534 -1347 l107 -267 335 0 336
0 44 113 c24 61 131 333 238 602 107 270 205 517 218 550 13 33 29 74 36 90 7
17 20 50 29 75 26 67 119 301 134 335 7 17 23 57 36 90 12 33 26 69 31 80 21
51 59 149 59 156 0 4 -171 7 -380 7 l-379 1 -116 -357 c-64 -196 -150 -458
-192 -582 -41 -124 -76 -233 -78 -244 -3 -10 -6 -21 -9 -23 -2 -2 -23 53 -45
124 -23 70 -101 308 -172 528 -72 220 -142 435 -156 477 l-25 77 -389 -1 -388
-1 19 -46z"/>
<path d="M5030 2313 c-33 -4 -99 -23 -130 -36 -41 -18 -121 -77 -148 -109 -14
-17 -30 -35 -36 -42 -22 -22 -55 -92 -71 -150 -17 -57 -17 -169 -1 -240 24
-104 128 -232 231 -283 85 -43 153 -57 245 -50 291 22 485 300 405 583 -40
139 -153 259 -288 303 -59 20 -154 30 -207 24z"/>
</g>
</svg>
