<?xml version="1.0" standalone="no"?>
<!DOCTYPE svg PUBLIC "-//W3C//DTD SVG 20010904//EN"
 "http://www.w3.org/TR/2001/REC-SVG-20010904/DTD/svg10.dtd">
<svg version="1.0" xmlns="http://www.w3.org/2000/svg"
 width="471.000000pt" height="471.000000pt" viewBox="0 0 471.000000 471.000000"
 preserveAspectRatio="xMidYMid meet">
<metadata>
Created by potrace 1.11, written by Peter Selinger 2001-2013
</metadata>
<g transform="translate(0.000000,471.000000) scale(0.100000,-0.100000)"
fill="#000000" stroke="none">
<path d="M1607 3791 c-2 -3 -3 -638 -3 -1411 l1 -1405 365 0 365 0 1 600 c0
330 4 616 8 635 15 63 44 117 85 159 58 59 119 83 212 85 104 1 178 -35 230
-114 63 -93 64 -100 64 -762 l0 -598 25 -1 c33 0 601 0 666 0 l52 1 -3 757
c-1 417 -5 772 -9 788 -58 259 -153 404 -329 503 -105 60 -217 85 -372 86
-232 2 -423 -91 -587 -284 l-38 -44 0 506 0 506 -365 0 c-201 0 -367 -3 -368
-7z"/>
<path d="M315 3588 c-10 -6 -13 -53 -13 -215 0 -115 -1 -232 -1 -261 l-1 -52
-97 1 c-54 0 -109 0 -123 0 l-25 -1 0 -287 c-1 -159 3 -291 7 -294 4 -3 60 -5
123 -4 74 1 115 -3 115 -10 1 -5 2 -235 4 -510 3 -472 5 -504 25 -579 41 -154
120 -271 226 -338 49 -31 163 -73 225 -83 25 -4 54 -9 65 -12 28 -5 274 -4
305 2 13 2 42 7 65 10 79 12 263 72 288 95 7 6 9 120 8 454 -1 118 -2 128 -18
120 -165 -72 -326 -80 -396 -20 -55 48 -59 76 -60 489 -1 245 2 377 8 378 6 1
116 2 245 3 l235 1 0 293 0 292 -30 1 c-16 0 -126 0 -242 0 -212 0 -213 1
-214 22 0 12 -1 131 -1 265 -1 168 -4 242 -12 243 -67 5 -701 2 -711 -3z"/>
<path d="M4108 1884 c-349 -80 -475 -516 -223 -769 252 -251 680 -134 770 210
39 151 -2 306 -112 425 -109 118 -277 170 -435 134z"/>
</g>
</svg>
