<?xml version="1.0" encoding="utf-8"?>
<!-- Generator: Adobe Illustrator 22.0.1, SVG Export Plug-In . SVG Version: 6.00 Build 0)  -->
<svg version="1.1" id="Lager_1" xmlns="http://www.w3.org/2000/svg" xmlns:xlink="http://www.w3.org/1999/xlink" x="0px" y="0px"
	 viewBox="0 0 280.56 199.28" style="enable-background:new 0 0 280.56 199.28;" xml:space="preserve">
<style type="text/css">
	.st0{fill:#fff;}
</style>
<g>
	<g>
		<path class="st0" d="M4.23,119.02v-0.4c0-22.54,17.1-34.21,42.66-34.21c10.06,0,19.92,2.01,26.16,4.23v-1.81
			c0-11.27-7.04-17.71-21.73-17.71c-11.47,0-20.32,2.21-29.98,6.04l-7.85-26.96c12.27-5.03,25.35-8.45,44.07-8.45
			c19.52,0,32.8,4.63,41.45,13.28c8.25,8.05,11.67,19.32,11.67,34.61v62.58H72.84v-11.27c-7.44,8.25-17.71,13.68-31.99,13.68
			C20.12,152.63,4.23,140.75,4.23,119.02z M73.44,110.77v-5.03c-3.82-1.61-9.26-2.82-14.89-2.82c-11.07,0-17.51,5.43-17.51,13.48
			v0.4c0,7.45,5.63,11.87,13.48,11.87C65.6,128.68,73.44,121.64,73.44,110.77z"/>
		<path class="st0" d="M117.11,3.32h38.23v52.92c7.04-9.05,17.1-17.3,32.6-17.3c23.14,0,37.02,15.29,37.02,40.04v71.23h-38.23V91.25
			c0-11.87-6.24-18.31-15.29-18.31c-9.26,0-16.1,6.44-16.1,18.31v58.96h-38.23V3.32z"/>
	</g>
	<circle class="st0" cx="253.74" cy="126.51" r="24"/>
</g>
<g>
	<path class="st0" d="M12.34,171.66c-2.75,0-4.84,0.8-6.53,1.59l-0.13,0.06l0.76,1.82l0.14-0.07c1.94-0.99,3.73-1.45,5.65-1.45
		c3.77,0,5.85,1.93,5.85,5.42v0.59c-1.5-0.39-3.27-0.74-5.89-0.74c-5.01,0-8.12,2.33-8.12,6.08v0.07c0,2.92,2.47,5.87,7.19,5.87
		c3.63,0,5.76-1.85,6.82-3.17v2.74h2.02v-11.51c0-2.25-0.62-3.97-1.9-5.25C16.84,172.35,14.87,171.66,12.34,171.66z M18.12,181.54
		v1.96c0,3.11-2.9,5.46-6.75,5.46c-2.55,0-5.14-1.38-5.14-4.03v-0.07c0-2.53,2.24-4.1,5.85-4.1
		C14.63,180.75,16.64,181.16,18.12,181.54z"/>
	<path class="st0" d="M32.74,163.98c-1.63,0-2.95,0.5-3.93,1.47c-1.08,1.08-1.65,2.76-1.65,4.86v1.64h-2.64v1.91h2.64v16.62h2.05
		v-16.62h6.36v-1.91h-6.36v-1.6c0-3.04,1.12-4.46,3.53-4.46c0.87,0,1.59,0.12,2.67,0.46l0.19,0.06v-1.95l-0.1-0.04
		C34.61,164.1,33.81,163.98,32.74,163.98z"/>
	<path class="st0" d="M45.67,163.98c-1.63,0-2.95,0.5-3.93,1.47c-1.08,1.08-1.65,2.76-1.65,4.86v1.64h-2.64v1.91h2.64v16.62h2.05
		v-16.62h6.36v-1.91h-6.36v-1.6c0-3.04,1.12-4.46,3.53-4.46c0.87,0,1.59,0.12,2.67,0.46l0.19,0.06v-1.95l-0.1-0.04
		C47.54,164.1,46.74,163.98,45.67,163.98z"/>
	<path class="st0" d="M58.71,171.66c-2.75,0-4.84,0.8-6.53,1.59l-0.13,0.06l0.76,1.82l0.14-0.07c1.94-0.99,3.73-1.45,5.65-1.45
		c3.77,0,5.85,1.93,5.85,5.42v0.59c-1.5-0.39-3.27-0.74-5.89-0.74c-5.01,0-8.12,2.33-8.12,6.08v0.07c0,2.92,2.47,5.87,7.19,5.87
		c3.63,0,5.76-1.85,6.82-3.17v2.74h2.01v-11.51c0-2.25-0.62-3.97-1.9-5.25C63.23,172.37,61.2,171.66,58.71,171.66z M64.49,181.54
		v1.96c0,3.11-2.9,5.46-6.75,5.46c-2.55,0-5.14-1.38-5.14-4.03v-0.07c0-2.53,2.24-4.1,5.85-4.1
		C61.01,180.75,63.01,181.16,64.49,181.54z"/>
	<rect x="60.67" y="166.05" class="st0" width="2.77" height="3.16"/>
	<rect x="54.84" y="166.05" class="st0" width="2.77" height="3.16"/>
	<path class="st0" d="M82.13,171.65c-3.13,0-6.04,1.9-7.63,4.96v-4.67h-2.05v18.52h2.05v-7.62c0-6.19,3.89-8.96,7.75-8.96h0.33
		v-2.22l-0.14,0C82.33,171.66,82.23,171.65,82.13,171.65z"/>
	<path class="st0" d="M93.12,180.03c-2.44-0.7-4.97-1.43-4.97-3.39v-0.07c0-1.78,1.64-3.03,4-3.03c1.81,0,3.77,0.64,5.53,1.8
		l0.13,0.08l1.09-1.72l-0.12-0.08c-1.88-1.25-4.39-2.03-6.55-2.03c-3.62,0-6.15,2.13-6.15,5.19v0.07c0,3.31,3.3,4.26,6.21,5.1
		l0.15,0.04c2.58,0.73,4.71,1.49,4.71,3.5v0.07c0,1.95-1.75,3.31-4.25,3.31c-2.24,0-4.41-0.79-6.45-2.36l-0.12-0.09l-1.21,1.63
		l0.11,0.09c2,1.63,4.97,2.68,7.56,2.68c3.73,0,6.44-2.3,6.44-5.47v-0.07C99.23,182.01,96.21,180.89,93.12,180.03z"/>
	<path class="st0" d="M112.98,171.52c-2.8,0-4.96,1.16-6.42,3.43v-10.87h-2.05v26.38h2.05v-10.69c0-3.62,2.65-6.35,6.17-6.35
		c3.48,0,5.64,2.32,5.64,6.07v10.98h2.05v-11.3C120.41,174.52,117.49,171.52,112.98,171.52z"/>
	<rect x="136.19" y="166.05" class="st0" width="2.77" height="3.16"/>
	<rect x="130.37" y="166.05" class="st0" width="2.77" height="3.16"/>
	<path class="st0" d="M134.7,171.52c-5.35,0-9.55,4.26-9.55,9.69v0.07c0,5.39,4.16,9.62,9.48,9.62c5.35,0,9.55-4.26,9.55-9.69v-0.07
		C144.17,175.74,140.01,171.52,134.7,171.52z M141.98,181.21v0.07c0,4.3-3.2,7.67-7.28,7.67c-4.12,0-7.35-3.4-7.35-7.75v-0.07
		c0-4.3,3.2-7.67,7.28-7.67C138.75,173.46,141.98,176.86,141.98,181.21z"/>
	<path class="st0" d="M164.45,175.28c-1.37-1.8-3.72-3.76-7.46-3.76c-4.28,0-8.91,3.36-8.91,8.8v0.07c0,2.47,0.99,4.72,2.78,6.36
		c1.66,1.51,3.89,2.37,6.13,2.37c2.96,0,5.53-1.35,7.46-3.9v2.18c0,4.34-2.62,6.92-7,6.92c-2.63,0-5.08-0.85-7.27-2.54l-0.12-0.09
		l-1.21,1.67l0.12,0.09c2.52,1.87,5.36,2.82,8.45,2.82c2.74,0,5.12-0.88,6.72-2.47c1.55-1.55,2.37-3.72,2.37-6.29v-15.55h-2.05
		V175.28z M157.17,173.5c4.62,0,7.39,3.45,7.39,6.78v0.07c0,4.19-3.83,6.78-7.39,6.78c-3.86,0-6.89-2.99-6.89-6.82v-0.07
		C150.28,176.33,153.18,173.5,157.17,173.5z"/>
	<path class="st0" d="M179.22,180.03c-2.44-0.7-4.96-1.43-4.96-3.39v-0.07c0-1.78,1.64-3.03,3.99-3.03c1.81,0,3.77,0.64,5.53,1.8
		l0.13,0.08l1.09-1.72l-0.12-0.08c-1.87-1.25-4.38-2.03-6.55-2.03c-3.62,0-6.15,2.13-6.15,5.19v0.07c0,3.31,3.3,4.26,6.21,5.1
		l0.15,0.04c2.58,0.73,4.71,1.49,4.71,3.5v0.07c0,1.95-1.75,3.31-4.24,3.31c-2.24,0-4.41-0.79-6.45-2.36l-0.12-0.09l-1.21,1.63
		l0.11,0.09c2,1.63,4.96,2.68,7.56,2.68c3.73,0,6.44-2.3,6.44-5.47v-0.07C185.33,182.01,182.31,180.89,179.22,180.03z"/>
	<polygon class="st0" points="206.47,171.95 203.73,171.95 192.65,183.41 192.65,164.08 190.6,164.08 190.6,190.47 192.65,190.47
		192.65,185.95 196.92,181.65 204.03,190.41 204.08,190.47 206.68,190.47 198.35,180.18 	"/>
	<path class="st0" d="M218.01,171.52c-5.35,0-9.55,4.26-9.55,9.69v0.07c0,5.39,4.16,9.62,9.48,9.62c5.35,0,9.55-4.26,9.55-9.69
		v-0.07C227.49,175.74,223.32,171.52,218.01,171.52z M225.29,181.21v0.07c0,4.3-3.2,7.67-7.28,7.67c-4.12,0-7.35-3.4-7.35-7.75
		v-0.07c0-4.3,3.2-7.67,7.28-7.67C222.06,173.46,225.29,176.86,225.29,181.21z"/>
	<rect x="232.83" y="164.08" class="st0" width="2.05" height="26.38"/>
	<path class="st0" d="M248.23,171.66c-2.75,0-4.84,0.8-6.53,1.59l-0.13,0.06l0.76,1.82l0.14-0.07c1.94-0.99,3.73-1.45,5.65-1.45
		c3.77,0,5.85,1.93,5.85,5.42v0.59c-1.5-0.39-3.27-0.74-5.89-0.74c-5.01,0-8.12,2.33-8.12,6.08v0.07c0,2.92,2.47,5.87,7.19,5.87
		c3.63,0,5.76-1.85,6.82-3.17v2.74H256v-11.51c0-2.25-0.62-3.97-1.9-5.25C252.74,172.35,250.77,171.66,248.23,171.66z
		 M254.02,181.54v1.96c0,3.11-2.9,5.46-6.75,5.46c-2.55,0-5.14-1.38-5.14-4.03v-0.07c0-2.53,2.24-4.1,5.85-4.1
		C250.53,180.75,252.54,181.16,254.02,181.54z"/>
	<path class="st0" d="M270.46,171.52c-2.8,0-4.96,1.16-6.42,3.43v-3.01h-2.05v18.52h2.05v-10.69c0-3.62,2.65-6.35,6.17-6.35
		c3.48,0,5.64,2.32,5.64,6.07v10.98h2.05v-11.3C277.89,174.52,274.97,171.52,270.46,171.52z"/>
</g>
</svg>
