<svg id="Layer_1" data-name="Layer 1" xmlns="http://www.w3.org/2000/svg" viewBox="0 0 206.46 26.35"><defs><style>.cls-1{fill:#fff;}</style></defs><title>affarshogskolan+en_del_av</title><path class="cls-1" d="M3.73,4.46A4.46,4.46,0,1,0,8.2,0,4.46,4.46,0,0,0,3.73,4.46"/><path class="cls-1" d="M8.61,20V14.21c0-2.31,1.17-4.26,2.76-4.87H3.74c-2.06,0-3.74,2.22-3.74,5v5.64c0,1.82,7.42,2.43,12.4,1.83-2.2-.34-3.78-0.93-3.78-1.78"/><path class="cls-1" d="M27.08,19.94c0,2.74-16.81,2.74-16.81,0V14.29c0-2.74,1.67-5,3.73-5h9.34c2.06,0,3.74,2.22,3.74,5v5.64Z"/><path class="cls-1" d="M14,4.46A4.46,4.46,0,1,0,18.47,0,4.46,4.46,0,0,0,14,4.46"/><path class="cls-1" d="M96.08,3.66h3.53v6.5h0A3.82,3.82,0,0,1,101,9a4,4,0,0,1,1.84-.44c2.25,0,4,1.56,4,5v6.62h-3.53V13.9c0-1.48-.51-2.51-1.84-2.51a1.86,1.86,0,0,0-1.76,1.25,2.07,2.07,0,0,0-.12.77v6.73H96.08V3.66Z"/><path class="cls-1" d="M115.49,20.4a5.56,5.56,0,0,1-5.87-5.85c0-3.67,2.41-6,6.08-6a5.52,5.52,0,0,1,5.78,5.83,5.68,5.68,0,0,1-6,6h0Zm-2.3-13a1.58,1.58,0,0,1-1.58-1.58,1.56,1.56,0,0,1,1.6-1.58,1.51,1.51,0,0,1,1.53,1.58,1.54,1.54,0,0,1-1.53,1.58h0Zm2.37,10.43c1.39,0,2.25-1.37,2.25-3.42,0-1.67-.65-3.39-2.25-3.39s-2.32,1.72-2.32,3.42c0,1.92.81,3.39,2.29,3.39h0Zm2.34-10.43a1.55,1.55,0,0,1-1.56-1.58,1.54,1.54,0,0,1,1.58-1.58,1.52,1.52,0,0,1,1.55,1.58,1.54,1.54,0,0,1-1.55,1.58h0Z"/><path class="cls-1" d="M135,18.5c0,2.18-.45,4-1.74,5.11a6.88,6.88,0,0,1-4.6,1.39,9,9,0,0,1-4.09-.86l0.7-2.69a7,7,0,0,0,3.3.85,2.7,2.7,0,0,0,2.95-3V18.59h0a3.66,3.66,0,0,1-3.06,1.46c-2.81,0-4.81-2.27-4.81-5.53,0-3.67,2.35-6,5.16-6a3.42,3.42,0,0,1,3.11,1.6h0L132,8.79h3.07c0,0.74-.09,1.69-0.09,3.39V18.5h0Zm-3.53-5.09a3.13,3.13,0,0,0-.07-0.65,1.93,1.93,0,0,0-1.9-1.56c-1.3,0-2.32,1.16-2.32,3.23,0,1.69.84,3,2.3,3A1.93,1.93,0,0,0,131.36,16a3.27,3.27,0,0,0,.12-1V13.42h0Z"/><path class="cls-1" d="M138.39,17.08a6.92,6.92,0,0,0,3,.83c1.07,0,1.51-.35,1.51-0.92s-0.35-.89-1.65-1.32c-2.37-.77-3.27-2.07-3.25-3.39,0-2.14,1.82-3.74,4.62-3.74a7.43,7.43,0,0,1,3.18.67l-0.6,2.41a6.08,6.08,0,0,0-2.46-.63c-0.86,0-1.35.35-1.35,0.91s0.44,0.84,1.83,1.33c2.16,0.72,3,1.83,3.07,3.48,0,2.14-1.65,3.69-4.9,3.69a8,8,0,0,1-3.67-.81Z"/><path class="cls-1" d="M152.61,13.6h0c0.26-.49.54-1,0.82-1.37l2.3-3.44H160L156,13.39l4.64,6.76h-4.34l-2.76-4.67-0.88,1.14v3.53h-3.53V3.66h3.53V13.6h0Z"/><path class="cls-1" d="M167.15,20.4a5.57,5.57,0,0,1-5.88-5.85,5.67,5.67,0,0,1,6.08-6,5.52,5.52,0,0,1,5.79,5.83,5.68,5.68,0,0,1-6,6h0Zm0.07-2.53c1.39,0,2.25-1.37,2.25-3.42,0-1.67-.65-3.39-2.25-3.39s-2.32,1.72-2.32,3.42c0,1.92.81,3.39,2.3,3.39h0Z"/><rect class="cls-1" x="175.9" y="3.66" width="3.53" height="16.49"/><path class="cls-1" d="M192.29,17.41a14.27,14.27,0,0,0,.19,2.74H189.3L189.09,19H189a4.08,4.08,0,0,1-3.25,1.39,3.48,3.48,0,0,1-3.67-3.48c0-3,2.65-4.34,6.67-4.34V12.44c0-.61-0.33-1.46-2.07-1.46a6.68,6.68,0,0,0-3.13.83l-0.65-2.25a9.31,9.31,0,0,1,4.41-1c3.79,0,5,2.23,5,4.9v4Zm-3.41-2.62c-1.86,0-3.3.44-3.3,1.79a1.26,1.26,0,0,0,1.4,1.34,2,2,0,0,0,1.83-1.3,2.62,2.62,0,0,0,.07-0.6V14.78h0Z"/><path class="cls-1" d="M195.69,12.42c0-1.42,0-2.6-.1-3.62h3.07l0.16,1.58h0.07a4.08,4.08,0,0,1,3.51-1.83c2.32,0,4.06,1.56,4.06,4.9v6.71h-3.53V13.86c0-1.47-.51-2.46-1.79-2.46a2,2,0,0,0-1.81,1.32,2.64,2.64,0,0,0-.12.89v6.55h-3.53V12.42h0Z"/><path class="cls-1" d="M39.34,14.77c-1.85,0-3.3.44-3.3,1.79a1.27,1.27,0,0,0,1.39,1.34,2,2,0,0,0,1.84-1.3,2.66,2.66,0,0,0,.07-0.6V14.77h0Zm3.41,2.63a14.79,14.79,0,0,0,.19,2.74H39.76L39.56,19H39.48a4.08,4.08,0,0,1-3.25,1.39,3.48,3.48,0,0,1-3.67-3.49c0-2.94,2.65-4.34,6.67-4.34V12.42c0-.61-0.33-1.47-2.07-1.47a6.7,6.7,0,0,0-3.13.83L33.37,9.55a9.32,9.32,0,0,1,4.42-1c3.78,0,5,2.23,5,4.9v4h0Z"/><path class="cls-1" d="M46.56,20.13V11.38H45.06V8.77h1.51V8.33A5.25,5.25,0,0,1,48,4.52a4.68,4.68,0,0,1,3.16-1.14A7.51,7.51,0,0,1,53,3.62L52.86,6.34a3.68,3.68,0,0,0-1.14-.16c-1.17,0-1.65.91-1.65,2V8.77h2.27v2.6H50.09v8.75H46.56Z"/><path class="cls-1" d="M55.07,20.13V11.38H53.56V8.77h1.51V8.33a5.23,5.23,0,0,1,1.42-3.81,4.66,4.66,0,0,1,3.16-1.14,7.52,7.52,0,0,1,1.85.23L61.36,6.34a3.66,3.66,0,0,0-1.14-.16c-1.16,0-1.65.91-1.65,2V8.77h2.27v2.6H58.59v8.75H55.07Z"/><path class="cls-1" d="M70.21,7.43a1.55,1.55,0,0,1-1.56-1.58,1.54,1.54,0,0,1,1.58-1.58,1.52,1.52,0,0,1,1.55,1.58,1.55,1.55,0,0,1-1.55,1.58h0Zm-1,7.34c-1.86,0-3.3.44-3.3,1.79a1.27,1.27,0,0,0,1.39,1.34,1.94,1.94,0,0,0,1.84-1.3,2.45,2.45,0,0,0,.07-0.6V14.77ZM65.49,7.43a1.58,1.58,0,0,1-1.58-1.58,1.56,1.56,0,0,1,1.6-1.58A1.51,1.51,0,0,1,67,5.85a1.54,1.54,0,0,1-1.53,1.58h0Zm7.11,10a14.55,14.55,0,0,0,.18,2.74H69.61L69.4,19H69.33a4.09,4.09,0,0,1-3.25,1.39A3.48,3.48,0,0,1,62.4,16.9c0-2.94,2.65-4.34,6.66-4.34V12.42c0-.61-0.32-1.47-2.07-1.47a6.65,6.65,0,0,0-3.13.83L63.22,9.55a9.27,9.27,0,0,1,4.41-1c3.79,0,5,2.23,5,4.9v4h0Z"/><path class="cls-1" d="M76,12.51c0-1.67,0-2.77-.1-3.74h3l0.14,2.11h0.09a3.3,3.3,0,0,1,3.07-2.37,3.39,3.39,0,0,1,.74.07V11.9a6.42,6.42,0,0,0-1-.09,2.25,2.25,0,0,0-2.42,1.79,4,4,0,0,0-.07.79v5.74H76Z"/><path class="cls-1" d="M85.37,17.06a6.9,6.9,0,0,0,3,.84c1.07,0,1.51-.34,1.51-0.92s-0.34-.88-1.65-1.33C85.91,14.88,85,13.58,85,12.25c0-2.13,1.81-3.73,4.62-3.73a7.48,7.48,0,0,1,3.18.67l-0.6,2.42A6.09,6.09,0,0,0,89.76,11c-0.86,0-1.35.35-1.35,0.91s0.44,0.84,1.83,1.32c2.16,0.72,3,1.84,3.07,3.48,0,2.14-1.65,3.69-4.9,3.69a8,8,0,0,1-3.67-.81Z"/><path class="cls-1" d="M83.23,26.25v-3.6h3.32v0.44H83.74v1.07h2.74v0.43H83.74v1.22h2.95v0.44H83.23Z"/><path class="cls-1" d="M91.81,26.25l-2.82-3s0,2.72,0,3H88.51v-3.6H89l2.8,3s0-2.79,0-3h0.49v3.6h-0.5Z"/><path class="cls-1" d="M96.14,22.65h1.79a2.05,2.05,0,0,1,1.24.29,1.72,1.72,0,0,1,.74,1.49,1.82,1.82,0,0,1-.61,1.4,2.53,2.53,0,0,1-1.72.43H96.14v-3.6Zm1.62,3.17A1.66,1.66,0,0,0,99,25.47a1.44,1.44,0,0,0,.43-1.07,1.25,1.25,0,0,0-.9-1.28,2.25,2.25,0,0,0-.56-0.05H96.66v2.75h1.1Z"/><path class="cls-1" d="M101.85,26.25v-3.6h3.32v0.44h-2.81v1.07h2.74v0.43h-2.74v1.22h2.95v0.44h-3.46Z"/><path class="cls-1" d="M107.14,26.25v-3.6h0.51v3.17H110v0.44h-2.9Z"/><path class="cls-1" d="M116.61,26.25l-0.44-.89H114l-0.44.89h-0.58l1.87-3.6h0.55l1.85,3.6h-0.59Zm-1.54-3.09-0.9,1.79h1.78Z"/><path class="cls-1" d="M120.68,26.25h-0.52l-1.73-3.6H119l1.43,3,1.39-3h0.56Z"/><path class="cls-1" d="M136.4,22.65h2.26a1.41,1.41,0,0,1,1.2.48,1.09,1.09,0,0,1,.18.62,1,1,0,0,1-.38.81,1.53,1.53,0,0,1-1,.25h-1.73v1.44H136.4v-3.6Zm2.18,1.73a0.93,0.93,0,0,0,.78-0.25,0.67,0.67,0,0,0,0-.8,1,1,0,0,0-.84-0.26h-1.61v1.3h1.66Z"/><path class="cls-1" d="M141.8,26.25v-3.6h0.51v3.17h2.39v0.44h-2.9Z"/><path class="cls-1" d="M146.85,22.65v2.2a0.78,0.78,0,0,0,.37.81,1.77,1.77,0,0,0,1,.24,1.47,1.47,0,0,0,1.24-.52,1.22,1.22,0,0,0,.08-0.53V22.65H150v2.17a1.61,1.61,0,0,1-.1.67,1.76,1.76,0,0,1-1.75.85,1.94,1.94,0,0,1-1.69-.75,1.64,1.64,0,0,1-.15-0.82V22.65h0.52Z"/><path class="cls-1" d="M152.3,25.33a1.33,1.33,0,0,0,.57.4,2.83,2.83,0,0,0,1,.17,1.65,1.65,0,0,0,1-.24,0.61,0.61,0,0,0,.24-0.48c0-.46-0.51-0.54-0.93-0.57l-0.55-.05a2.05,2.05,0,0,1-1.29-.34,0.77,0.77,0,0,1-.26-0.6,0.9,0.9,0,0,1,.5-0.82,2.55,2.55,0,0,1,1.19-.23,2,2,0,0,1,1.8.72l-0.47.19a1.75,1.75,0,0,0-1.33-.49c-0.54,0-1.18.12-1.18,0.6s0.37,0.45.73,0.48l1.12,0.11a1.06,1.06,0,0,1,1.17,1c0,0.55-.36,1.17-1.77,1.17a2.34,2.34,0,0,1-2-.82Z"/><path class="cls-1" d="M160.82,26.25V24.55h-2.76v1.71h-0.52v-3.6h0.52v1.47h2.76V22.65h0.52v3.6h-0.52Z"/><path class="cls-1" d="M165.49,26.35c-1.34,0-2.21-.68-2.21-1.86a2,2,0,0,1,2.17-1.93,2,2,0,0,1,2.21,1.94A1.91,1.91,0,0,1,165.49,26.35Zm0-3.35a1.47,1.47,0,1,0,0,2.9,1.43,1.43,0,0,0,1.65-1.45A1.47,1.47,0,0,0,165.46,23Zm-0.94-.7V21.77H165V22.3h-0.5Zm1.34,0V21.77h0.5V22.3h-0.5Z"/><path class="cls-1" d="M173.05,26.25v-0.5a2.09,2.09,0,0,1-1.57.58,1.92,1.92,0,0,1-2.06-1.89,1.94,1.94,0,0,1,2.15-1.88,2.1,2.1,0,0,1,1.9.95l-0.5.15a1.58,1.58,0,0,0-1.37-.66A1.47,1.47,0,0,0,170,24.42a1.49,1.49,0,0,0,1.63,1.49,1.57,1.57,0,0,0,1.33-.66,1.09,1.09,0,0,0,.14-0.46h-1.59V24.35h2v1.9h-0.44Z"/><path class="cls-1" d="M175.67,25.33a1.33,1.33,0,0,0,.57.4,2.83,2.83,0,0,0,1,.17,1.65,1.65,0,0,0,1-.24,0.61,0.61,0,0,0,.24-0.48c0-.46-0.51-0.54-0.93-0.57L177,24.55a2.05,2.05,0,0,1-1.29-.34,0.77,0.77,0,0,1-.26-0.6,0.9,0.9,0,0,1,.5-0.82,2.55,2.55,0,0,1,1.19-.23,2,2,0,0,1,1.8.72l-0.47.19a1.75,1.75,0,0,0-1.33-.49c-0.54,0-1.18.12-1.18,0.6s0.37,0.45.73,0.48l1.12,0.11a1.06,1.06,0,0,1,1.17,1c0,0.55-.36,1.17-1.77,1.17a2.34,2.34,0,0,1-2-.82Z"/><path class="cls-1" d="M184.16,26.25l-1.63-1.94-1.12.82v1.12h-0.5v-3.6h0.51v1.92l2.6-1.92h0.75L182.95,24l1.89,2.25h-0.68Z"/><path class="cls-1" d="M188.43,26.35c-1.34,0-2.21-.68-2.21-1.86a2,2,0,0,1,2.17-1.93,2,2,0,0,1,2.21,1.94A1.91,1.91,0,0,1,188.43,26.35Zm0-3.35a1.47,1.47,0,1,0,0,2.9,1.43,1.43,0,0,0,1.65-1.45A1.47,1.47,0,0,0,188.4,23Z"/><path class="cls-1" d="M192.54,26.25v-3.6h0.51v3.17h2.39v0.44h-2.9Z"/><path class="cls-1" d="M200.32,26.25l-0.44-.89h-2.22l-0.44.89h-0.58l1.87-3.6h0.55l1.85,3.6h-0.59Zm-1.54-3.09-0.9,1.79h1.78Z"/><path class="cls-1" d="M205.88,26.25l-2.82-3s0,2.72,0,3h-0.49v-3.6h0.53l2.8,3s0-2.79,0-3h0.49v3.6h-0.5Z"/></svg>