<?xml version="1.0" encoding="utf-8"?>
<!-- Generator: Adobe Illustrator 22.0.1, SVG Export Plug-In . SVG Version: 6.00 Build 0)  -->
<svg version="1.1" id="Lager_1" xmlns="http://www.w3.org/2000/svg" xmlns:xlink="http://www.w3.org/1999/xlink" x="0px" y="0px"
	 viewBox="0 0 473.2 56.4" style="enable-background:new 0 0 473.2 56.4;" xml:space="preserve">
<style type="text/css">
	.st0{fill:#fff;}
</style>
<g>
	<g>
		<path class="st0" d="M0.6,38.4v-0.1c0-7.4,5.6-11.2,13.9-11.2c3.3,0,6.5,0.7,8.5,1.4v-0.6c0-3.7-2.3-5.8-7.1-5.8
			c-3.7,0-6.6,0.7-9.8,2l-2.6-8.8c4-1.6,8.3-2.8,14.4-2.8c6.4,0,10.7,1.5,13.5,4.3c2.7,2.6,3.8,6.3,3.8,11.3v20.4H23v-3.7
			c-2.4,2.7-5.8,4.5-10.5,4.5C5.8,49.4,0.6,45.5,0.6,38.4z M23.2,35.7V34c-1.2-0.5-3-0.9-4.9-0.9c-3.6,0-5.7,1.8-5.7,4.4v0.1
			c0,2.4,1.8,3.9,4.4,3.9C20.7,41.5,23.2,39.2,23.2,35.7z"/>
		<path class="st0" d="M37.5,0.6H50v17.3c2.3-3,5.6-5.7,10.7-5.7c7.6,0,12.1,5,12.1,13.1v23.3H60.3V29.3c0-3.9-2-6-5-6
			c-3,0-5.3,2.1-5.3,6v19.3H37.5V0.6z"/>
	</g>
	<circle class="st0" cx="82.1" cy="40.8" r="7.8"/>
</g>
<g>
	<path class="st0" d="M113.7,23.1c-3.7,0-6.5,1.1-8.8,2.1l-0.2,0.1l1,2.5l0.2-0.1c2.6-1.3,5-2,7.6-2c5.1,0,7.9,2.6,7.9,7.3v0.8
		c-2-0.5-4.4-1-8-1c-6.8,0-11,3.1-11,8.2v0.1c0,3.9,3.3,7.9,9.7,7.9c4.9,0,7.8-2.5,9.2-4.3v3.7h2.7V33c0-3-0.8-5.4-2.6-7.1
		C119.8,24.1,117.1,23.1,113.7,23.1z M121.5,36.5v2.6c0,4.2-3.9,7.4-9.1,7.4c-3.5,0-6.9-1.9-6.9-5.4V41c0-3.4,3-5.5,7.9-5.5
		C116.8,35.4,119.5,36,121.5,36.5z"/>
	<path class="st0" d="M141.3,12.8c-2.2,0-4,0.7-5.3,2c-1.5,1.5-2.2,3.7-2.2,6.6v2.2h-3.6v2.6h3.6v22.5h2.8V26.1h8.6v-2.6h-8.6v-2.2
		c0-4.1,1.5-6,4.8-6c1.2,0,2.2,0.2,3.6,0.6l0.3,0.1v-2.6l-0.1,0C143.8,12.9,142.7,12.8,141.3,12.8z"/>
	<path class="st0" d="M158.8,12.8c-2.2,0-4,0.7-5.3,2c-1.5,1.5-2.2,3.7-2.2,6.6v2.2h-3.6v2.6h3.6v22.5h2.8V26.1h8.6v-2.6H154v-2.2
		c0-4.1,1.5-6,4.8-6c1.2,0,2.2,0.2,3.6,0.6l0.3,0.1v-2.6l-0.1,0C161.3,12.9,160.2,12.8,158.8,12.8z"/>
	<path class="st0" d="M176.4,23.1c-3.7,0-6.5,1.1-8.8,2.1l-0.2,0.1l1,2.5l0.2-0.1c2.6-1.3,5-2,7.6-2c5.1,0,7.9,2.6,7.9,7.3v0.8
		c-2-0.5-4.4-1-8-1c-6.8,0-11,3.1-11,8.2v0.1c0,3.9,3.3,7.9,9.7,7.9c4.9,0,7.8-2.5,9.2-4.3v3.7h2.7V33c0-3-0.8-5.4-2.6-7.1
		C182.5,24.1,179.7,23.1,176.4,23.1z M184.2,36.5v2.6c0,4.2-3.9,7.4-9.1,7.4c-3.5,0-6.9-1.9-6.9-5.4V41c0-3.4,3-5.5,7.9-5.5
		C179.5,35.4,182.2,36,184.2,36.5z"/>
	<rect x="179" y="15.6" class="st0" width="3.7" height="4.3"/>
	<rect x="171.2" y="15.6" class="st0" width="3.7" height="4.3"/>
	<path class="st0" d="M208,23.1c-4.2,0-8.2,2.6-10.3,6.7v-6.3H195v25h2.8V38.3c0-8.4,5.3-12.1,10.5-12.1h0.4v-3l-0.2,0
		C208.3,23.1,208.2,23.1,208,23.1z"/>
	<path class="st0" d="M222.9,34.4c-3.3-0.9-6.7-1.9-6.7-4.6v-0.1c0-2.4,2.2-4.1,5.4-4.1c2.4,0,5.1,0.9,7.5,2.4l0.2,0.1l1.5-2.3
		l-0.2-0.1c-2.5-1.7-5.9-2.7-8.9-2.7c-4.9,0-8.3,2.9-8.3,7v0.1c0,4.5,4.5,5.8,8.4,6.9l0.2,0.1c3.5,1,6.4,2,6.4,4.7v0.1
		c0,2.6-2.4,4.5-5.7,4.5c-3,0-6-1.1-8.7-3.2l-0.2-0.1l-1.6,2.2l0.2,0.1c2.7,2.2,6.7,3.6,10.2,3.6c5,0,8.7-3.1,8.7-7.4v-0.1
		C231.1,37.1,227.1,35.6,222.9,34.4z"/>
	<path class="st0" d="M249.7,22.9c-3.8,0-6.7,1.6-8.7,4.6V12.9h-2.8v35.7h2.8V34.1c0-4.9,3.6-8.6,8.3-8.6c4.7,0,7.6,3.1,7.6,8.2
		v14.8h2.8V33.3C259.8,27,255.8,22.9,249.7,22.9z"/>
	<rect x="281.1" y="15.6" class="st0" width="3.7" height="4.3"/>
	<rect x="273.2" y="15.6" class="st0" width="3.7" height="4.3"/>
	<path class="st0" d="M279.1,22.9c-7.2,0-12.9,5.8-12.9,13.1v0.1c0,7.3,5.6,13,12.8,13c7.2,0,12.9-5.8,12.9-13.1v-0.1
		C291.9,28.7,286.3,22.9,279.1,22.9z M288.9,36L288.9,36c0,5.9-4.3,10.5-9.8,10.5c-5.6,0-9.9-4.6-9.9-10.5v-0.1
		c0-5.8,4.3-10.4,9.8-10.4C284.6,25.6,288.9,30.2,288.9,36z"/>
	<path class="st0" d="M319.3,28c-1.9-2.4-5-5.1-10.1-5.1c-5.8,0-12,4.5-12,11.9v0.1c0,3.3,1.3,6.4,3.8,8.6c2.2,2,5.3,3.2,8.3,3.2
		c4,0,7.5-1.8,10.1-5.3v2.9c0,5.9-3.5,9.4-9.5,9.4c-3.6,0-6.9-1.2-9.8-3.4l-0.2-0.1l-1.6,2.3l0.2,0.1c3.4,2.5,7.2,3.8,11.4,3.8
		c3.7,0,6.9-1.2,9.1-3.3c2.1-2.1,3.2-5,3.2-8.5v-21h-2.8V28z M309.5,25.6c6.3,0,10,4.7,10,9.2v0.1c0,5.7-5.2,9.2-10,9.2
		c-5.2,0-9.3-4-9.3-9.2v-0.1C300.1,29.5,304.1,25.6,309.5,25.6z"/>
	<path class="st0" d="M339.2,34.4c-3.3-0.9-6.7-1.9-6.7-4.6v-0.1c0-2.4,2.2-4.1,5.4-4.1c2.4,0,5.1,0.9,7.5,2.4l0.2,0.1l1.5-2.3
		l-0.2-0.1c-2.5-1.7-5.9-2.7-8.9-2.7c-4.9,0-8.3,2.9-8.3,7v0.1c0,4.5,4.5,5.8,8.4,6.9l0.2,0.1c3.5,1,6.4,2,6.4,4.7v0.1
		c0,2.6-2.4,4.5-5.7,4.5c-3,0-6-1.1-8.7-3.2l-0.2-0.1l-1.6,2.2l0.2,0.1c2.7,2.2,6.7,3.6,10.2,3.6c5,0,8.7-3.1,8.7-7.4v-0.1
		C347.5,37.1,343.4,35.6,339.2,34.4z"/>
	<polygon class="st0" points="376.1,23.5 372.4,23.5 357.4,39 357.4,12.9 354.6,12.9 354.6,48.6 357.4,48.6 357.4,42.5 363.2,36.6
		372.8,48.5 372.9,48.6 376.4,48.6 365.1,34.7 	"/>
	<path class="st0" d="M391.7,22.9c-7.2,0-12.9,5.8-12.9,13.1v0.1c0,7.3,5.6,13,12.8,13c7.2,0,12.9-5.8,12.9-13.1v-0.1
		C404.5,28.7,398.9,22.9,391.7,22.9z M401.5,36L401.5,36c0,5.9-4.3,10.5-9.8,10.5c-5.6,0-9.9-4.6-9.9-10.5v-0.1
		c0-5.8,4.3-10.4,9.8-10.4C397.2,25.6,401.5,30.2,401.5,36z"/>
	<rect x="411.7" y="12.9" class="st0" width="2.8" height="35.7"/>
	<path class="st0" d="M432.5,23.1c-3.7,0-6.5,1.1-8.8,2.1l-0.2,0.1l1,2.5l0.2-0.1c2.6-1.3,5-2,7.6-2c5.1,0,7.9,2.6,7.9,7.3v0.8
		c-2-0.5-4.4-1-8-1c-6.8,0-11,3.1-11,8.2v0.1c0,3.9,3.3,7.9,9.7,7.9c4.9,0,7.8-2.5,9.2-4.3v3.7h2.7V33c0-3-0.8-5.4-2.6-7.1
		C438.6,24.1,436,23.1,432.5,23.1z M440.3,36.5v2.6c0,4.2-3.9,7.4-9.1,7.4c-3.5,0-6.9-1.9-6.9-5.4V41c0-3.4,3-5.5,7.9-5.5
		C435.6,35.4,438.4,36,440.3,36.5z"/>
	<path class="st0" d="M462.6,22.9c-3.8,0-6.7,1.6-8.7,4.6v-4.1h-2.8v25h2.8V34.1c0-4.9,3.6-8.6,8.3-8.6c4.7,0,7.6,3.1,7.6,8.2v14.8
		h2.8V33.3C472.6,27,468.7,22.9,462.6,22.9z"/>
</g>
</svg>
