<?xml version="1.0" encoding="utf-8"?>
<!-- Generator: Adobe Illustrator 19.2.0, SVG Export Plug-In . SVG Version: 6.00 Build 0)  -->
<!DOCTYPE svg PUBLIC "-//W3C//DTD SVG 1.1//EN" "http://www.w3.org/Graphics/SVG/1.1/DTD/svg11.dtd">
<svg version="1.1" id="Layer_1" xmlns="http://www.w3.org/2000/svg" xmlns:xlink="http://www.w3.org/1999/xlink" x="0px" y="0px"
	 viewBox="0 0 206.463 25" style="enable-background:new 0 0 206.463 25;" xml:space="preserve">
<style type="text/css">
	.st0{fill:#FFFFFF;}
</style>
<g>
	<path class="st0" d="M3.735,4.46c0,2.464,1.997,4.461,4.462,4.461c2.463,0,4.46-1.997,4.46-4.461c0-2.464-1.997-4.46-4.46-4.46
		C5.732,0,3.735,1.997,3.735,4.46"/>
	<path class="st0" d="M8.615,19.988v-5.78c0-2.311,1.167-4.257,2.76-4.871h-7.64C1.672,9.337,0,11.555,0,14.292v5.642
		c0,1.82,7.417,2.427,12.398,1.83C10.195,21.428,8.615,20.838,8.615,19.988"/>
	<path class="st0" d="M27.078,19.937c0,2.735-16.807,2.735-16.807,0v-5.643c0-2.737,1.672-4.955,3.735-4.955h9.337
		c2.064,0,3.735,2.218,3.735,4.955V19.937z"/>
	<path class="st0" d="M14.007,4.463c0,2.464,1.997,4.461,4.461,4.461c2.463,0,4.461-1.997,4.461-4.461
		c0-2.465-1.998-4.461-4.461-4.461C16.004,0.002,14.007,1.998,14.007,4.463"/>
	<path class="st0" d="M96.076,3.659h3.532v6.502h0.048c0.369-0.51,0.833-0.905,1.391-1.187c0.538-0.279,1.183-0.436,1.838-0.436
		c2.255,0,3.97,1.555,3.97,4.992v6.618h-3.531V13.9c0-1.484-0.512-2.507-1.836-2.507c-0.926,0-1.51,0.603-1.763,1.253
		c-0.092,0.21-0.117,0.511-0.117,0.769v6.734h-3.532V3.659z"/>
	<path class="st0" d="M115.492,20.404c-3.321,0-5.872-2.187-5.872-5.85c0-3.671,2.412-6.016,6.082-6.016
		c3.464,0,5.782,2.391,5.782,5.83c0,4.133-2.949,6.036-5.968,6.036H115.492z M113.195,7.443c-0.882,0-1.582-0.715-1.582-1.579
		c0-0.904,0.7-1.58,1.604-1.58c0.883,0,1.53,0.676,1.53,1.58c0,0.864-0.647,1.579-1.53,1.579H113.195z M115.563,17.875
		c1.393,0,2.253-1.374,2.253-3.417c0-1.669-0.652-3.392-2.253-3.392c-1.672,0-2.32,1.723-2.32,3.417
		c0,1.921,0.811,3.392,2.294,3.392H115.563z M117.907,7.443c-0.904,0-1.557-0.715-1.557-1.579c0-0.904,0.679-1.58,1.583-1.58
		c0.906,0,1.554,0.676,1.554,1.58c0,0.864-0.647,1.579-1.554,1.579H117.907z"/>
	<path class="st0" d="M135.002,18.501c0,2.181-0.445,3.97-1.743,5.106c-1.23,1.072-2.927,1.393-4.6,1.393
		c-1.507,0-3.063-0.298-4.087-0.86l0.699-2.687c0.722,0.413,1.951,0.853,3.299,0.853c1.672,0,2.947-0.883,2.947-2.995v-0.72h-0.046
		c-0.672,0.932-1.765,1.461-3.064,1.461c-2.811,0-4.809-2.273-4.809-5.528c0-3.666,2.345-5.987,5.155-5.987
		c1.559,0,2.533,0.673,3.111,1.599h0.048l0.115-1.345h3.065c-0.048,0.743-0.091,1.695-0.091,3.39V18.501z M131.471,13.415
		c0-0.211-0.023-0.442-0.069-0.652c-0.251-0.929-0.931-1.557-1.902-1.557c-1.301,0-2.325,1.161-2.325,3.23
		c0,1.695,0.835,3.017,2.301,3.017c0.927,0,1.649-0.601,1.881-1.417c0.092-0.279,0.115-0.647,0.115-0.955V13.415z"/>
	<path class="st0" d="M138.39,17.085c0.653,0.395,2.001,0.832,3.043,0.832c1.069,0,1.513-0.346,1.513-0.924
		c0-0.607-0.35-0.885-1.652-1.322c-2.366-0.772-3.272-2.071-3.252-3.394c0-2.139,1.815-3.739,4.624-3.739
		c1.32,0,2.488,0.322,3.182,0.673l-0.604,2.413c-0.513-0.253-1.509-0.627-2.461-0.627c-0.858,0-1.35,0.347-1.35,0.906
		c0,0.559,0.442,0.835,1.834,1.327c2.163,0.717,3.045,1.833,3.071,3.479c0,2.139-1.651,3.694-4.905,3.694
		c-1.483,0-2.808-0.35-3.667-0.814L138.39,17.085z"/>
	<path class="st0" d="M152.606,13.6h0.04c0.261-0.491,0.542-0.954,0.819-1.371l2.298-3.437h4.255l-4.066,4.596l4.644,6.761h-4.344
		l-2.761-4.67l-0.884,1.139v3.531h-3.528V3.659h3.528V13.6z"/>
	<path class="st0" d="M167.146,20.404c-3.323,0-5.878-2.187-5.878-5.85c0-3.67,2.414-6.015,6.082-6.015
		c3.461,0,5.785,2.39,5.785,5.829c0,4.133-2.95,6.036-5.968,6.036H167.146z M167.214,17.875c1.391,0,2.252-1.374,2.252-3.417
		c0-1.671-0.65-3.392-2.252-3.392c-1.672,0-2.322,1.722-2.322,3.417c0,1.921,0.812,3.392,2.298,3.392H167.214z"/>
	<rect x="175.902" y="3.66" class="st0" width="3.53" height="16.491"/>
	<path class="st0" d="M192.295,17.406c0,1.072,0.046,2.118,0.19,2.743h-3.186l-0.211-1.138h-0.067
		c-0.742,0.907-1.905,1.392-3.25,1.392c-2.301,0-3.67-1.672-3.67-3.481c0-2.951,2.651-4.345,6.667-4.345v-0.138
		c0-0.605-0.327-1.464-2.071-1.464c-1.159,0-2.391,0.396-3.131,0.832l-0.653-2.247c0.788-0.443,2.347-1.021,4.413-1.021
		c3.785,0,4.969,2.227,4.969,4.898V17.406z M188.884,14.783c-1.863,0-3.301,0.444-3.301,1.792c0,0.904,0.604,1.341,1.395,1.341
		c0.856,0,1.601-0.579,1.834-1.299c0.045-0.188,0.071-0.395,0.071-0.602V14.783z"/>
	<path class="st0" d="M195.687,12.415c0-1.418-0.047-2.603-0.095-3.623h3.071l0.157,1.579h0.074
		c0.464-0.742,1.603-1.833,3.507-1.833c2.322,0,4.063,1.555,4.063,4.898v6.712h-3.531v-6.292c0-1.465-0.508-2.464-1.789-2.464
		c-0.973,0-1.55,0.673-1.811,1.322c-0.09,0.235-0.115,0.559-0.115,0.885v6.549h-3.529V12.415z"/>
	<path class="st0" d="M39.343,14.766c-1.855,0-3.3,0.445-3.3,1.791c0,0.901,0.606,1.34,1.394,1.34c0.861,0,1.602-0.576,1.838-1.297
		c0.044-0.186,0.067-0.395,0.067-0.6V14.766z M42.756,17.393c0,1.065,0.047,2.107,0.186,2.739H39.76l-0.204-1.138h-0.075
		c-0.741,0.907-1.906,1.391-3.249,1.391c-2.3,0-3.669-1.666-3.669-3.487c0-2.942,2.648-4.337,6.665-4.337v-0.137
		c0-0.608-0.325-1.465-2.068-1.465c-1.159,0-2.389,0.395-3.134,0.832l-0.654-2.246c0.794-0.445,2.351-1.023,4.418-1.023
		c3.784,0,4.967,2.228,4.967,4.896V17.393z"/>
	<path class="st0" d="M46.565,20.131v-8.755h-1.509V8.772h1.509v-0.44c0-1.372,0.418-2.882,1.415-3.808
		c0.912-0.835,2.115-1.137,3.16-1.137c0.768,0,1.376,0.114,1.859,0.234l-0.138,2.717c-0.306-0.098-0.675-0.165-1.138-0.165
		c-1.165,0-1.652,0.906-1.652,2.019v0.581h2.273v2.605h-2.25v8.755H46.565z"/>
	<path class="st0" d="M55.067,20.131v-8.755h-1.509V8.772h1.509v-0.44c0-1.372,0.414-2.882,1.416-3.808
		c0.906-0.835,2.11-1.137,3.162-1.137c0.763,0,1.366,0.114,1.853,0.234l-0.138,2.717c-0.301-0.098-0.675-0.165-1.139-0.165
		c-1.16,0-1.647,0.906-1.647,2.019v0.581h2.274v2.605h-2.255v8.755H55.067z"/>
	<path class="st0" d="M70.208,7.426c-0.904,0-1.555-0.72-1.555-1.579c0-0.905,0.674-1.579,1.581-1.579
		c0.904,0,1.554,0.673,1.554,1.579c0,0.859-0.649,1.579-1.554,1.579H70.208z M69.187,14.766c-1.861,0-3.299,0.445-3.299,1.791
		c0,0.901,0.607,1.34,1.391,1.34c0.864,0,1.605-0.576,1.837-1.297c0.048-0.186,0.071-0.395,0.071-0.6V14.766z M65.493,7.426
		c-0.884,0-1.58-0.72-1.58-1.579c0-0.905,0.696-1.579,1.603-1.579c0.883,0,1.532,0.673,1.532,1.579c0,0.859-0.649,1.579-1.532,1.579
		H65.493z M72.603,17.393c0,1.065,0.042,2.107,0.184,2.739h-3.18l-0.211-1.138h-0.069c-0.747,0.907-1.904,1.391-3.253,1.391
		c-2.295,0-3.669-1.666-3.669-3.487c0-2.942,2.648-4.337,6.664-4.337v-0.137c0-0.608-0.323-1.465-2.068-1.465
		c-1.162,0-2.391,0.395-3.13,0.832l-0.652-2.246c0.789-0.445,2.344-1.023,4.412-1.023c3.79,0,4.973,2.228,4.973,4.896V17.393z"/>
	<path class="st0" d="M76.014,12.513c0-1.67-0.019-2.765-0.095-3.742h3.022l0.14,2.115h0.091c0.579-1.673,1.951-2.366,3.066-2.366
		c0.328,0,0.49,0.02,0.743,0.068v3.317c-0.299-0.041-0.58-0.09-0.976-0.09c-1.299,0-2.183,0.674-2.415,1.788
		c-0.047,0.236-0.07,0.488-0.07,0.788v5.739h-3.526L76.014,12.513z"/>
	<path class="st0" d="M85.372,17.06c0.654,0.397,2.001,0.837,3.045,0.837c1.07,0,1.508-0.345,1.508-0.924
		c0-0.605-0.344-0.884-1.651-1.327c-2.365-0.765-3.27-2.064-3.25-3.392c0-2.132,1.811-3.732,4.623-3.732
		c1.322,0,2.486,0.321,3.18,0.668l-0.598,2.418c-0.516-0.254-1.512-0.627-2.465-0.627c-0.862,0-1.347,0.349-1.347,0.907
		c0,0.559,0.444,0.837,1.832,1.323c2.164,0.721,3.042,1.839,3.071,3.483c0,2.138-1.654,3.692-4.903,3.692
		c-1.486,0-2.81-0.347-3.671-0.811L85.372,17.06z"/>
</g>
</svg>
