<?xml version="1.0" encoding="utf-8"?>
<!-- Generator: Adobe Illustrator 19.2.0, SVG Export Plug-In . SVG Version: 6.00 Build 0)  -->
<!DOCTYPE svg PUBLIC "-//W3C//DTD SVG 1.1//EN" "http://www.w3.org/Graphics/SVG/1.1/DTD/svg11.dtd">
<svg version="1.1" id="Layer_1" xmlns="http://www.w3.org/2000/svg" xmlns:xlink="http://www.w3.org/1999/xlink" x="0px" y="0px"
	 viewBox="0 0 189.024 25" style="enable-background:new 0 0 189.024 25;" xml:space="preserve">
<style type="text/css">
	.st0{fill:#FFFFFF;}
</style>
<g>
	<path class="st0" d="M3.734,4.458c0,2.463,1.997,4.46,4.46,4.46c2.463,0,4.461-1.997,4.461-4.46C12.655,1.996,10.657,0,8.194,0
		C5.731,0,3.734,1.996,3.734,4.458"/>
	<path class="st0" d="M8.612,19.979v-5.776c0-2.312,1.166-4.255,2.759-4.869H3.733C1.672,9.333,0,11.55,0,14.286v5.64
		c0,1.817,7.415,2.427,12.394,1.828C10.191,21.42,8.612,20.829,8.612,19.979"/>
	<path class="st0" d="M27.069,19.929c0,2.733-16.802,2.733-16.802,0v-5.642c0-2.735,1.672-4.953,3.733-4.953h9.335
		c2.063,0,3.734,2.218,3.734,4.953V19.929z"/>
	<path class="st0" d="M14.001,4.46c0,2.464,1.997,4.46,4.461,4.46c2.463,0,4.46-1.996,4.46-4.46c0-2.463-1.997-4.459-4.46-4.459
		C15.998,0.001,14.001,1.997,14.001,4.46"/>
	<path class="st0" d="M32.657,12.608c0-1.484-0.046-2.74-0.093-3.806h3.063l0.163,1.578h0.046c0.836-1.183,2.135-1.834,3.783-1.834
		c2.482,0,4.71,2.159,4.71,5.778c0,4.13-2.621,6.08-5.152,6.08c-1.369,0-2.437-0.558-2.946-1.3h-0.046v5.641h-3.528V12.608z
		 M36.186,15.277c0,0.277,0.023,0.51,0.069,0.743c0.232,0.95,1.045,1.669,2.067,1.669c1.532,0,2.436-1.276,2.436-3.203
		c0-1.81-0.813-3.177-2.39-3.177c-0.998,0-1.88,0.743-2.112,1.787c-0.046,0.186-0.069,0.418-0.069,0.625V15.277z"/>
	<rect x="47.099" y="3.674" class="st0" width="3.528" height="16.475"/>
	<path class="st0" d="M64.74,16.506c0,1.487,0.046,2.69,0.092,3.643h-3.063l-0.163-1.6h-0.07c-0.441,0.695-1.508,1.856-3.551,1.856
		c-2.319,0-3.991-1.439-3.991-4.941V8.802h3.528v6.101c0,1.649,0.533,2.649,1.786,2.649c0.975,0,1.555-0.675,1.764-1.231
		c0.093-0.208,0.139-0.464,0.139-0.767V8.802h3.528V16.506z"/>
	<path class="st0" d="M68.111,17.085c0.65,0.396,1.996,0.836,3.039,0.836c1.068,0,1.509-0.347,1.509-0.929
		c0-0.605-0.348-0.881-1.647-1.322c-2.366-0.79-3.272-2.064-3.249-3.413c0-2.133,1.809-3.735,4.616-3.735
		c1.323,0,2.484,0.324,3.18,0.673l-0.603,2.437c-0.51-0.28-1.508-0.65-2.46-0.65c-0.859,0-1.347,0.347-1.347,0.904
		c0,0.558,0.441,0.837,1.834,1.324c2.158,0.742,3.04,1.855,3.063,3.501c0,2.136-1.648,3.691-4.897,3.691
		c-1.485,0-2.808-0.348-3.665-0.813L68.111,17.085z"/>
	<path class="st0" d="M78.767,3.674h3.528v6.497h0.045c0.372-0.51,0.836-0.906,1.394-1.182c0.534-0.28,1.182-0.442,1.832-0.442
		c2.251,0,3.969,1.555,3.969,4.989v6.613h-3.528v-6.242c0-1.485-0.51-2.505-1.833-2.505c-0.929,0-1.508,0.602-1.764,1.252
		c-0.092,0.21-0.115,0.511-0.115,0.767v6.729h-3.528V3.674z"/>
	<path class="st0" d="M104.137,14.349c0,4.153-2.947,6.056-5.985,6.056c-3.319,0-5.871-2.181-5.871-5.848
		c0-3.69,2.413-6.033,6.079-6.033C101.818,8.523,104.137,10.914,104.137,14.349 M94.113,5.601c0-0.93,0.743-1.626,1.67-1.626
		c0.884,0,1.58,0.695,1.58,1.626c0,0.905-0.673,1.647-1.602,1.647C94.833,7.247,94.113,6.505,94.113,5.601 M95.923,14.463
		c0,1.95,0.813,3.41,2.32,3.41c1.395,0,2.251-1.368,2.251-3.434c0-1.669-0.649-3.387-2.251-3.387
		C96.575,11.054,95.923,12.794,95.923,14.463 M100.611,7.247c-0.904,0-1.6-0.742-1.6-1.647c0-0.93,0.696-1.626,1.648-1.626
		c0.904,0,1.599,0.695,1.599,1.626c0,0.905-0.672,1.647-1.599,1.647H100.611z"/>
	<path class="st0" d="M117.698,18.501c0,2.181-0.44,3.968-1.741,5.107c-1.229,1.066-2.923,1.392-4.592,1.392
		c-1.509,0-3.065-0.302-4.085-0.859l0.696-2.692c0.719,0.418,1.95,0.858,3.295,0.858c1.671,0,2.946-0.882,2.946-2.993v-0.72h-0.047
		c-0.673,0.927-1.761,1.463-3.062,1.463c-2.808,0-4.802-2.274-4.802-5.522c0-3.668,2.341-5.987,5.15-5.987
		c1.553,0,2.531,0.674,3.109,1.623h0.047l0.116-1.368h3.063c-0.047,0.742-0.093,1.695-0.093,3.388V18.501z M114.169,13.419
		c0-0.207-0.022-0.441-0.067-0.649c-0.258-0.93-0.93-1.555-1.905-1.555c-1.3,0-2.321,1.161-2.321,3.224
		c0,1.695,0.836,3.017,2.298,3.017c0.927,0,1.647-0.604,1.877-1.416c0.094-0.278,0.116-0.649,0.116-0.95V13.419z"/>
	<path class="st0" d="M121.072,17.085c0.651,0.396,1.994,0.836,3.038,0.836c1.068,0,1.508-0.347,1.508-0.929
		c0-0.605-0.347-0.881-1.646-1.322c-2.368-0.79-3.272-2.064-3.25-3.413c0-2.133,1.811-3.735,4.617-3.735
		c1.324,0,2.484,0.324,3.18,0.673l-0.604,2.437c-0.509-0.28-1.508-0.65-2.458-0.65c-0.86,0-1.347,0.347-1.347,0.904
		c0,0.558,0.441,0.837,1.835,1.324c2.155,0.742,3.039,1.855,3.062,3.501c0,2.136-1.649,3.691-4.897,3.691
		c-1.484,0-2.808-0.348-3.665-0.813L121.072,17.085z"/>
	<path class="st0" d="M135.255,13.582h0.045c0.256-0.486,0.535-0.951,0.813-1.368l2.297-3.412h4.246l-4.06,4.596l4.64,6.751h-4.34
		l-2.761-4.664l-0.88,1.113v3.551h-3.528V3.673h3.528V13.582z"/>
	<path class="st0" d="M155.752,14.348c0,4.154-2.948,6.057-5.985,6.057c-3.321,0-5.872-2.181-5.872-5.848
		c0-3.691,2.413-6.033,6.079-6.033C153.433,8.524,155.752,10.914,155.752,14.348 M147.536,14.463c0,1.95,0.813,3.41,2.322,3.41
		c1.392,0,2.251-1.368,2.251-3.434c0-1.669-0.651-3.387-2.251-3.387C148.186,11.053,147.536,12.793,147.536,14.463"/>
	<rect x="158.497" y="3.674" class="st0" width="3.528" height="16.475"/>
	<path class="st0" d="M174.883,17.411c0,1.068,0.047,2.11,0.186,2.737h-3.18l-0.21-1.137h-0.07
		c-0.741,0.905-1.902,1.392-3.249,1.392c-2.296,0-3.667-1.67-3.667-3.481c0-2.949,2.647-4.341,6.661-4.341v-0.137
		c0-0.629-0.326-1.485-2.065-1.485c-1.16,0-2.391,0.392-3.133,0.857l-0.648-2.274c0.788-0.441,2.343-1.02,4.407-1.02
		c3.785,0,4.968,2.229,4.968,4.92V17.411z M171.473,14.788c-1.858,0-3.295,0.441-3.295,1.788c0,0.905,0.602,1.345,1.393,1.345
		c0.857,0,1.6-0.581,1.832-1.299c0.047-0.186,0.07-0.396,0.07-0.603V14.788z"/>
	<path class="st0" d="M178.256,12.422c0-1.415-0.045-2.598-0.092-3.62h3.064l0.161,1.579h0.071c0.464-0.742,1.599-1.833,3.501-1.833
		c2.322,0,4.063,1.555,4.063,4.897v6.705h-3.528v-6.287c0-1.463-0.51-2.46-1.787-2.46c-0.977,0-1.556,0.672-1.812,1.323
		c-0.092,0.232-0.115,0.557-0.115,0.882v6.542h-3.527V12.422z"/>
</g>
</svg>
