<?xml version="1.0" encoding="utf-8"?>
<!-- Generator: Adobe Illustrator 19.2.0, SVG Export Plug-In . SVG Version: 6.00 Build 0)  -->
<!DOCTYPE svg PUBLIC "-//W3C//DTD SVG 1.1//EN" "http://www.w3.org/Graphics/SVG/1.1/DTD/svg11.dtd">
<svg version="1.1" id="Layer_1" xmlns="http://www.w3.org/2000/svg" xmlns:xlink="http://www.w3.org/1999/xlink" x="0px" y="0px"
	 viewBox="0 0 213.166 25" style="enable-background:new 0 0 213.166 25;" xml:space="preserve">
<style type="text/css">
	.st0{fill:#FFFFFF;}
</style>
<g>
	<path class="st0" d="M3.735,4.459c0,2.465,1.997,4.461,4.46,4.461c2.464,0,4.461-1.996,4.461-4.461C12.656,1.997,10.659,0,8.195,0
		C5.732,0,3.735,1.997,3.735,4.459"/>
	<path class="st0" d="M8.614,19.984v-5.779c0-2.311,1.167-4.256,2.759-4.869H3.735C1.672,9.336,0,11.552,0,14.29v5.641
		c0,1.818,7.416,2.426,12.396,1.829C10.193,21.425,8.614,20.835,8.614,19.984"/>
	<path class="st0" d="M27.074,19.933c0,2.734-16.805,2.734-16.805,0v-5.642c0-2.736,1.672-4.955,3.735-4.955h9.336
		c2.062,0,3.734,2.218,3.734,4.955V19.933z"/>
	<path class="st0" d="M14.004,4.462c0,2.464,1.997,4.461,4.46,4.461c2.464,0,4.461-1.997,4.461-4.461c0-2.464-1.997-4.46-4.461-4.46
		C16.001,0.002,14.004,1.998,14.004,4.462"/>
	<path class="st0" d="M37.54,5.726V8.79h2.531v2.601H37.54v4.112c0,1.369,0.349,1.996,1.394,1.996c0.487,0,0.72-0.023,1.045-0.093
		l0.023,2.67c-0.441,0.163-1.3,0.303-2.276,0.303c-1.138,0-2.09-0.394-2.67-0.975c-0.65-0.674-0.975-1.765-0.975-3.368v-4.645h-1.51
		V8.79h1.51V6.678L37.54,5.726z"/>
	<path class="st0" d="M45.248,15.594c0.093,1.463,1.556,2.161,3.205,2.161c1.207,0,2.183-0.162,3.135-0.487l0.465,2.39
		c-1.162,0.487-2.578,0.72-4.111,0.72c-3.854,0-6.061-2.23-6.061-5.782c0-2.88,1.789-6.062,5.736-6.062
		c3.669,0,5.062,2.857,5.062,5.666c0,0.604-0.07,1.138-0.116,1.393H45.248z M49.405,13.179c0-0.859-0.372-2.298-1.997-2.298
		c-1.486,0-2.09,1.37-2.183,2.298H49.405z"/>
	<path class="st0" d="M58.855,13.574h0.047c0.255-0.487,0.533-0.951,0.813-1.37l2.298-3.414h4.25l-4.064,4.598l4.644,6.757h-4.342
		l-2.764-4.667l-0.882,1.115v3.553h-3.53V3.659h3.53V13.574z"/>
	<path class="st0" d="M68.675,12.413c0-1.416-0.047-2.601-0.093-3.623h3.066l0.162,1.58h0.07c0.465-0.743,1.603-1.834,3.507-1.834
		c2.323,0,4.064,1.556,4.064,4.9v6.71h-3.53v-6.293c0-1.463-0.511-2.462-1.789-2.462c-0.975,0-1.555,0.674-1.81,1.324
		c-0.093,0.232-0.117,0.558-0.117,0.883v6.548h-3.529V12.413z"/>
	<path class="st0" d="M86.462,5.633c0,0.975-0.721,1.765-1.905,1.765c-1.114,0-1.835-0.79-1.835-1.765
		c0-0.999,0.743-1.764,1.881-1.764C85.741,3.868,86.438,4.634,86.462,5.633 M82.816,8.791h3.53v11.355h-3.53V8.791z"/>
	<path class="st0" d="M93.241,13.574h0.046c0.256-0.487,0.534-0.951,0.812-1.37l2.299-3.414h4.25l-4.064,4.598l4.644,6.757h-4.342
		l-2.764-4.667l-0.882,1.115v3.553h-3.53V3.659h3.53V13.574z"/>
	<path class="st0" d="M103.085,3.659h3.529v6.502h0.045c0.373-0.511,0.837-0.905,1.393-1.184c0.535-0.278,1.184-0.441,1.835-0.441
		c2.254,0,3.97,1.556,3.97,4.993v6.618h-3.529v-6.246c0-1.486-0.509-2.508-1.834-2.508c-0.929,0-1.51,0.604-1.765,1.254
		c-0.094,0.21-0.116,0.511-0.116,0.767v6.733h-3.529V3.659z"/>
	<path class="st0" d="M128.442,14.341c0,4.157-2.95,6.062-5.992,6.062c-3.32,0-5.875-2.183-5.875-5.853
		c0-3.692,2.415-6.038,6.085-6.038C126.12,8.512,128.442,10.905,128.442,14.341 M118.409,5.586c0-0.928,0.743-1.626,1.673-1.626
		c0.883,0,1.579,0.697,1.579,1.626c0,0.906-0.674,1.649-1.603,1.649C119.129,7.235,118.409,6.492,118.409,5.586 M120.22,14.457
		c0,1.949,0.813,3.413,2.322,3.413c1.393,0,2.253-1.37,2.253-3.437c0-1.672-0.65-3.39-2.253-3.39
		C120.871,11.043,120.22,12.786,120.22,14.457 M124.911,7.235c-0.904,0-1.601-0.743-1.601-1.649c0-0.928,0.697-1.626,1.648-1.626
		c0.907,0,1.603,0.697,1.603,1.626c0,0.906-0.673,1.649-1.603,1.649H124.911z"/>
	<path class="st0" d="M141.978,18.498c0,2.182-0.442,3.971-1.741,5.108c-1.231,1.068-2.927,1.393-4.599,1.393
		c-1.509,0-3.065-0.302-4.087-0.86l0.697-2.692c0.72,0.417,1.95,0.858,3.297,0.858c1.672,0,2.951-0.884,2.951-2.996V18.59h-0.048
		c-0.673,0.929-1.765,1.463-3.065,1.463c-2.81,0-4.807-2.276-4.807-5.527c0-3.668,2.344-5.991,5.155-5.991
		c1.556,0,2.531,0.674,3.111,1.626h0.046l0.117-1.37h3.065c-0.046,0.744-0.093,1.696-0.093,3.391V18.498z M138.448,13.411
		c0-0.208-0.022-0.441-0.069-0.65c-0.256-0.928-0.929-1.556-1.904-1.556c-1.3,0-2.323,1.161-2.323,3.228
		c0,1.696,0.838,3.019,2.299,3.019c0.929,0,1.65-0.604,1.881-1.417c0.094-0.279,0.116-0.65,0.116-0.952V13.411z"/>
	<path class="st0" d="M145.32,17.081c0.649,0.394,1.997,0.835,3.042,0.835c1.067,0,1.51-0.348,1.51-0.927
		c0-0.605-0.349-0.884-1.649-1.324c-2.369-0.79-3.276-2.066-3.252-3.413c0-2.137,1.811-3.739,4.622-3.739
		c1.322,0,2.483,0.326,3.18,0.674l-0.603,2.438c-0.511-0.278-1.511-0.65-2.462-0.65c-0.86,0-1.347,0.348-1.347,0.906
		c0,0.557,0.44,0.836,1.834,1.324c2.16,0.742,3.042,1.858,3.066,3.507c0,2.136-1.65,3.693-4.9,3.693
		c-1.486,0-2.811-0.349-3.67-0.813L145.32,17.081z"/>
	<path class="st0" d="M159.483,13.574h0.046c0.255-0.487,0.534-0.951,0.813-1.37l2.299-3.414h4.25l-4.064,4.598l4.645,6.757h-4.342
		l-2.765-4.667l-0.882,1.115v3.553h-3.529V3.659h3.529V13.574z"/>
	<path class="st0" d="M179.963,14.341c0,4.157-2.949,6.062-5.992,6.062c-3.321,0-5.875-2.183-5.875-5.853
		c0-3.693,2.415-6.038,6.084-6.038C177.64,8.512,179.963,10.904,179.963,14.341 M171.743,14.457c0,1.951,0.813,3.413,2.321,3.413
		c1.394,0,2.253-1.37,2.253-3.437c0-1.672-0.65-3.39-2.253-3.39C172.393,11.043,171.743,12.786,171.743,14.457"/>
	<rect x="182.678" y="3.659" class="st0" width="3.53" height="16.487"/>
	<path class="st0" d="M199.047,17.406c0,1.068,0.047,2.113,0.186,2.74h-3.182l-0.208-1.137h-0.071
		c-0.742,0.905-1.904,1.394-3.251,1.394c-2.298,0-3.669-1.673-3.669-3.484c0-2.95,2.649-4.343,6.666-4.343v-0.139
		c0-0.627-0.327-1.486-2.067-1.486c-1.162,0-2.392,0.394-3.136,0.859l-0.65-2.276c0.79-0.441,2.345-1.022,4.413-1.022
		c3.784,0,4.968,2.231,4.968,4.923V17.406z M195.634,14.782c-1.856,0-3.296,0.442-3.296,1.788c0,0.906,0.604,1.346,1.391,1.346
		c0.86,0,1.604-0.579,1.836-1.299c0.047-0.186,0.069-0.395,0.069-0.604V14.782z"/>
	<path class="st0" d="M202.39,12.413c0-1.416-0.046-2.601-0.092-3.623h3.064l0.163,1.58h0.071c0.463-0.743,1.601-1.834,3.505-1.834
		c2.322,0,4.065,1.556,4.065,4.9v6.71h-3.53v-6.293c0-1.463-0.511-2.462-1.789-2.462c-0.975,0-1.556,0.674-1.811,1.324
		c-0.092,0.232-0.116,0.558-0.116,0.883v6.548h-3.53V12.413z"/>
</g>
</svg>
