<svg id="Layer_1" data-name="Layer 1" xmlns="http://www.w3.org/2000/svg" viewBox="0 0 213.19 26.29"><defs><style>.cls-1{fill:#fff;}</style></defs><title>teknikhogskolan+en_del_av</title><path class="cls-1" d="M3.74,4.46A4.46,4.46,0,1,0,8.2,0,4.46,4.46,0,0,0,3.74,4.46"/><path class="cls-1" d="M8.61,20V14.21c0-2.31,1.17-4.26,2.76-4.87H3.74c-2.06,0-3.74,2.22-3.74,5v5.64c0,1.82,7.42,2.43,12.4,1.83-2.2-.33-3.78-0.92-3.78-1.77"/><path class="cls-1" d="M27.08,19.94c0,2.73-16.81,2.73-16.81,0V14.29c0-2.74,1.67-5,3.74-5h9.34c2.06,0,3.73,2.22,3.73,5v5.64Z"/><path class="cls-1" d="M14,4.46A4.46,4.46,0,1,0,18.47,0,4.46,4.46,0,0,0,14,4.46"/><path class="cls-1" d="M37.54,5.73V8.79h2.53v2.6H37.54V15.5c0,1.37.35,2,1.39,2a4.35,4.35,0,0,0,1-.09l0,2.67a7.41,7.41,0,0,1-2.28.3,3.77,3.77,0,0,1-2.67-1,4.71,4.71,0,0,1-1-3.37V11.39H32.57V8.79h1.51V6.68Z"/><path class="cls-1" d="M45.25,15.6c0.09,1.46,1.56,2.16,3.21,2.16a9.36,9.36,0,0,0,3.14-.49l0.46,2.39a10.75,10.75,0,0,1-4.11.72c-3.85,0-6.06-2.23-6.06-5.78,0-2.88,1.79-6.06,5.74-6.06,3.67,0,5.06,2.86,5.06,5.67a8.39,8.39,0,0,1-.12,1.39H45.25Zm4.16-2.42a2,2,0,0,0-2-2.3,2.33,2.33,0,0,0-2.18,2.3h4.18Z"/><path class="cls-1" d="M58.86,13.58h0a15,15,0,0,1,.81-1.37L62,8.79h4.25l-4.06,4.6,4.64,6.76H62.51l-2.76-4.67L58.86,16.6v3.55H55.33V3.66h3.53v9.92Z"/><path class="cls-1" d="M68.68,12.41c0-1.42,0-2.6-.09-3.62h3.07l0.16,1.58h0.07A4.08,4.08,0,0,1,75.4,8.54c2.32,0,4.06,1.56,4.06,4.9v6.71H75.93V13.85c0-1.46-.51-2.46-1.79-2.46a1.94,1.94,0,0,0-1.81,1.32,2.54,2.54,0,0,0-.12.88v6.55H68.68V12.41Z"/><path class="cls-1" d="M86.47,5.63a1.76,1.76,0,0,1-1.9,1.77,1.77,1.77,0,1,1,1.9-1.77M82.83,8.79h3.53V20.15H82.83V8.79Z"/><path class="cls-1" d="M93.25,13.58h0a15.48,15.48,0,0,1,.81-1.37l2.3-3.41h4.25l-4.06,4.6,4.64,6.76H96.9l-2.76-4.67L93.25,16.6v3.55H89.72V3.66h3.53v9.92Z"/><path class="cls-1" d="M103.1,3.66h3.53v6.5h0A3.83,3.83,0,0,1,108.07,9a4,4,0,0,1,1.84-.44c2.25,0,4,1.56,4,5v6.62h-3.53V13.9c0-1.49-.51-2.51-1.83-2.51a1.87,1.87,0,0,0-1.77,1.25,2,2,0,0,0-.12.77v6.73H103.1V3.66Z"/><path class="cls-1" d="M128.46,14.34a5.7,5.7,0,0,1-6,6.06,5.56,5.56,0,0,1-5.88-5.85,5.68,5.68,0,0,1,6.09-6,5.52,5.52,0,0,1,5.78,5.83m-10-8.76A1.63,1.63,0,0,1,120.1,4a1.58,1.58,0,0,1,1.58,1.63,1.6,1.6,0,0,1-1.6,1.65,1.64,1.64,0,0,1-1.65-1.65m1.81,8.87c0,1.95.81,3.41,2.32,3.41s2.25-1.37,2.25-3.44c0-1.67-.65-3.39-2.25-3.39s-2.32,1.74-2.32,3.41m4.69-7.22a1.62,1.62,0,0,1-1.6-1.65,1.63,1.63,0,1,1,3.25,0A1.6,1.6,0,0,1,125,7.24h0Z"/><path class="cls-1" d="M142,18.5c0,2.18-.44,4-1.74,5.11a6.91,6.91,0,0,1-4.6,1.39,9.08,9.08,0,0,1-4.09-.86l0.7-2.69a6.91,6.91,0,0,0,3.3.86,2.7,2.7,0,0,0,3-3V18.59h0a3.67,3.67,0,0,1-3.07,1.46c-2.81,0-4.81-2.28-4.81-5.53,0-3.67,2.34-6,5.16-6a3.39,3.39,0,0,1,3.11,1.63h0L139,8.79h3.07c0,0.74-.09,1.7-0.09,3.39V18.5Zm-3.53-5.09a3.08,3.08,0,0,0-.07-0.65,1.94,1.94,0,0,0-1.9-1.56c-1.3,0-2.32,1.16-2.32,3.23,0,1.7.84,3,2.3,3A1.93,1.93,0,0,0,138.35,16a3.21,3.21,0,0,0,.12-1V13.41Z"/><path class="cls-1" d="M145.34,17.08a6.9,6.9,0,0,0,3,.83c1.07,0,1.51-.35,1.51-0.93s-0.35-.88-1.65-1.32c-2.37-.79-3.28-2.07-3.25-3.41,0-2.14,1.81-3.74,4.62-3.74a7.47,7.47,0,0,1,3.18.67l-0.6,2.44a5.68,5.68,0,0,0-2.46-.65c-0.86,0-1.35.35-1.35,0.91s0.44,0.84,1.83,1.32c2.16,0.74,3,1.86,3.07,3.51,0,2.14-1.65,3.69-4.9,3.69a8,8,0,0,1-3.67-.81Z"/><path class="cls-1" d="M159.5,13.58h0a15.08,15.08,0,0,1,.81-1.37l2.3-3.41h4.25l-4.06,4.6,4.65,6.76h-4.34l-2.77-4.67L159.5,16.6v3.55H156V3.66h3.53v9.92Z"/><path class="cls-1" d="M180,14.34a5.7,5.7,0,0,1-6,6.06,5.56,5.56,0,0,1-5.88-5.85,5.68,5.68,0,0,1,6.08-6A5.52,5.52,0,0,1,180,14.34m-8.22.12c0,2,.81,3.41,2.32,3.41s2.25-1.37,2.25-3.44c0-1.67-.65-3.39-2.25-3.39s-2.32,1.74-2.32,3.41"/><rect class="cls-1" x="182.7" y="3.66" width="3.53" height="16.49"/><path class="cls-1" d="M199.07,17.41a14.67,14.67,0,0,0,.19,2.74h-3.18L195.87,19H195.8a4.09,4.09,0,0,1-3.25,1.39,3.48,3.48,0,0,1-3.67-3.48c0-3,2.65-4.34,6.67-4.34V12.44c0-.63-0.33-1.49-2.07-1.49a6.39,6.39,0,0,0-3.14.86l-0.65-2.28a9.33,9.33,0,0,1,4.41-1c3.78,0,5,2.23,5,4.92v4Zm-3.41-2.62c-1.86,0-3.3.44-3.3,1.79a1.27,1.27,0,0,0,1.39,1.35,2,2,0,0,0,1.84-1.3,2.52,2.52,0,0,0,.07-0.6V14.78Z"/><path class="cls-1" d="M202.41,12.41c0-1.42,0-2.6-.09-3.62h3.06l0.16,1.58h0.07a4.07,4.07,0,0,1,3.51-1.83c2.32,0,4.07,1.56,4.07,4.9v6.71h-3.53V13.85c0-1.46-.51-2.46-1.79-2.46a1.94,1.94,0,0,0-1.81,1.32,2.57,2.57,0,0,0-.12.88v6.55h-3.53V12.41Z"/><path class="cls-1" d="M89.52,26.2V22.58h3.34V23H90V24.1h2.75v0.43H90v1.22h3V26.2H89.52Z"/><path class="cls-1" d="M98.14,26.2l-2.83-3s0,2.73,0,3H94.82V22.58h0.53l2.81,3s0-2.8,0-3h0.49V26.2h-0.5Z"/><path class="cls-1" d="M102.48,22.58h1.8a2.06,2.06,0,0,1,1.24.29,1.72,1.72,0,0,1,.74,1.49,1.83,1.83,0,0,1-.61,1.4,2.54,2.54,0,0,1-1.73.43h-1.45V22.58Zm1.62,3.18a1.66,1.66,0,0,0,1.2-.35,1.44,1.44,0,0,0,.44-1.07,1.25,1.25,0,0,0-.9-1.29,2.26,2.26,0,0,0-.56-0.05H103v2.76h1.11Z"/><path class="cls-1" d="M108.21,26.2V22.58h3.34V23h-2.82V24.1h2.75v0.43h-2.75v1.22h3V26.2h-3.47Z"/><path class="cls-1" d="M113.52,26.2V22.58H114v3.18h2.4V26.2h-2.92Z"/><path class="cls-1" d="M123,26.2l-0.44-.89h-2.22l-0.44.89h-0.58l1.88-3.62h0.55l1.86,3.62H123Zm-1.55-3.1-0.9,1.79h1.79Z"/><path class="cls-1" d="M127.12,26.2H126.6l-1.74-3.62h0.57l1.44,3,1.39-3h0.56Z"/><path class="cls-1" d="M142.91,22.58h2.27a1.41,1.41,0,0,1,1.21.49,1.1,1.1,0,0,1,.19.62,1,1,0,0,1-.38.81,1.54,1.54,0,0,1-1,.25h-1.74V26.2h-0.52V22.58Zm2.19,1.74a0.93,0.93,0,0,0,.78-0.25,0.68,0.68,0,0,0,0-.8A1,1,0,0,0,145,23h-1.61v1.31h1.67Z"/><path class="cls-1" d="M148.33,26.2V22.58h0.51v3.18h2.4V26.2h-2.92Z"/><path class="cls-1" d="M153.4,22.58v2.21a0.78,0.78,0,0,0,.37.81,1.78,1.78,0,0,0,1,.24,1.48,1.48,0,0,0,1.24-.52,1.22,1.22,0,0,0,.08-0.53V22.58h0.52v2.18a1.62,1.62,0,0,1-.1.68,1.77,1.77,0,0,1-1.76.85,2,2,0,0,1-1.7-.75,1.64,1.64,0,0,1-.15-0.83V22.58h0.52Z"/><path class="cls-1" d="M158.87,25.27a1.34,1.34,0,0,0,.57.4,2.84,2.84,0,0,0,1,.17,1.65,1.65,0,0,0,1-.25,0.62,0.62,0,0,0,.25-0.49c0-.46-0.51-0.54-0.93-0.57l-0.55-.05a2.06,2.06,0,0,1-1.3-.34,0.77,0.77,0,0,1-.26-0.6,0.9,0.9,0,0,1,.5-0.82,2.56,2.56,0,0,1,1.19-.24,2,2,0,0,1,1.81.73l-0.47.19a1.76,1.76,0,0,0-1.33-.49c-0.54,0-1.19.12-1.19,0.6s0.37,0.45.73,0.49L161,24.11a1.06,1.06,0,0,1,1.18,1c0,0.55-.36,1.18-1.77,1.18a2.34,2.34,0,0,1-2-.82Z"/><path class="cls-1" d="M167.43,26.2V24.48h-2.77V26.2h-0.52V22.58h0.52v1.48h2.77V22.58h0.52V26.2h-0.52Z"/><path class="cls-1" d="M172.11,26.29c-1.34,0-2.21-.69-2.21-1.87a2,2,0,0,1,2.18-1.94,2,2,0,0,1,2.21,1.95A1.92,1.92,0,0,1,172.11,26.29Zm0-3.36a1.47,1.47,0,1,0,0,2.92,1.43,1.43,0,0,0,1.66-1.46A1.48,1.48,0,0,0,172.08,22.93Zm-0.95-.7V21.7h0.5v0.53h-0.5Zm1.35,0V21.7H173v0.53h-0.5Z"/><path class="cls-1" d="M179.71,26.2V25.7a2.1,2.1,0,0,1-1.58.58,1.93,1.93,0,0,1-2.07-1.9,2,2,0,0,1,2.16-1.89,2.11,2.11,0,0,1,1.91,1l-0.5.15a1.59,1.59,0,0,0-1.37-.67,1.48,1.48,0,0,0-1.65,1.42,1.5,1.5,0,0,0,1.64,1.49,1.57,1.57,0,0,0,1.34-.66,1.1,1.1,0,0,0,.14-0.47h-1.59V24.29h2V26.2h-0.45Z"/><path class="cls-1" d="M182.33,25.27a1.34,1.34,0,0,0,.57.4,2.84,2.84,0,0,0,1,.17,1.65,1.65,0,0,0,1-.25,0.62,0.62,0,0,0,.25-0.49c0-.46-0.51-0.54-0.93-0.57l-0.55-.05a2.06,2.06,0,0,1-1.3-.34,0.77,0.77,0,0,1-.26-0.6,0.9,0.9,0,0,1,.5-0.82,2.56,2.56,0,0,1,1.19-.24,2,2,0,0,1,1.81.73l-0.47.19a1.76,1.76,0,0,0-1.33-.49c-0.54,0-1.19.12-1.19,0.6S183,24,183.37,24l1.12,0.11a1.06,1.06,0,0,1,1.18,1c0,0.55-.36,1.18-1.77,1.18a2.34,2.34,0,0,1-2-.82Z"/><path class="cls-1" d="M190.86,26.2l-1.64-1.95-1.12.83V26.2h-0.5V22.58h0.51V24.5l2.61-1.93h0.75l-1.83,1.36,1.9,2.26h-0.69Z"/><path class="cls-1" d="M195.14,26.29c-1.34,0-2.21-.69-2.21-1.87a2,2,0,0,1,2.18-1.94,2,2,0,0,1,2.21,1.95A1.92,1.92,0,0,1,195.14,26.29Zm0-3.36a1.47,1.47,0,1,0,0,2.92,1.43,1.43,0,0,0,1.66-1.46A1.48,1.48,0,0,0,195.11,22.93Z"/><path class="cls-1" d="M199.28,26.2V22.58h0.51v3.18h2.4V26.2h-2.92Z"/><path class="cls-1" d="M207.08,26.2l-0.44-.89h-2.22L204,26.2H203.4l1.88-3.62h0.55l1.86,3.62h-0.59Zm-1.55-3.1-0.9,1.79h1.79Z"/><path class="cls-1" d="M212.66,26.2l-2.83-3s0,2.73,0,3h-0.49V22.58h0.53l2.81,3s0-2.8,0-3h0.49V26.2h-0.5Z"/></svg>