<?xml version="1.0" encoding="utf-8"?>
<!-- Generator: Adobe Illustrator 22.0.1, SVG Export Plug-In . SVG Version: 6.00 Build 0)  -->
<svg version="1.1" id="Lager_1" xmlns="http://www.w3.org/2000/svg" xmlns:xlink="http://www.w3.org/1999/xlink" x="0px" y="0px"
	 viewBox="0 0 479.9 56.7" style="enable-background:new 0 0 479.9 56.7;" xml:space="preserve">
<style type="text/css">
	.st0{fill:#fff;}
</style>
<g>
	<g>
		<path class="st0" d="M4.7,37.5V23H0.5V13h4.2V4h12.5v9h8.3V23h-8.3v12c0,2.5,1.1,3.6,3.4,3.6c1.6,0,3.2-0.5,4.7-1.2v9.8
			c-2.2,1.2-5.2,2-8.7,2C9.1,49.3,4.7,46,4.7,37.5z"/>
		<path class="st0" d="M26.9,0.5h12.5v17.3c2.3-3,5.6-5.7,10.7-5.7c7.6,0,12.1,5,12.1,13.1v23.3H49.6V29.3c0-3.9-2-6-5-6
			c-3,0-5.3,2.1-5.3,6v19.3H26.9V0.5z"/>
	</g>
	<circle class="st0" cx="71.3" cy="40.7" r="7.8"/>
</g>
<g>
	<path class="st0" d="M97.8,14.9h-2.9v8.1h-3.7v2.7h3.7v16.3c0,4.5,2.7,7.2,7.3,7.2c1.6,0,2.8-0.3,4.2-0.9l0.1-0.1v-2.8l-0.3,0.2
		c-1.4,0.6-2.4,0.9-3.6,0.9c-3.2,0-4.8-1.6-4.8-4.6v-16h8.8v-2.7h-8.8V14.9z"/>
	<path class="st0" d="M123,22.3c-6.8,0-12.2,5.9-12.2,13.4v0.1c0,7.6,5.4,13.4,12.6,13.4c4.3,0,7.5-1.4,10.6-4.8l0.2-0.2l-2-1.8
		l-0.2,0.2c-2.5,2.6-5.2,3.9-8.5,3.9c-5.2,0-9.1-3.9-9.6-9.4h20.8l0-0.2c0.1-0.4,0.1-0.6,0.1-1C134.8,27.8,130,22.3,123,22.3z
		 M131.7,34.3h-17.8c0.5-5.4,4.3-9.3,9-9.3C128.8,25,131.3,30,131.7,34.3z"/>
	<polygon class="st0" points="163.5,22.9 159.6,22.9 144.3,38.7 144.3,12 141.4,12 141.4,48.6 144.3,48.6 144.3,42.3 150.2,36.4
		160,48.5 160.1,48.6 163.8,48.6 152.2,34.3 	"/>
	<path class="st0" d="M180.8,22.3c-3.8,0-6.8,1.6-8.8,4.7v-4.1h-2.9v25.7h2.9V33.8c0-5,3.7-8.7,8.5-8.7c4.9,0,7.8,3.1,7.8,8.4v15.2
		h2.9V32.9C191.2,26.5,187.1,22.3,180.8,22.3z"/>
	<rect x="199.4" y="13" class="st0" width="3.5" height="3.8"/>
	<rect x="199.7" y="22.9" class="st0" width="2.9" height="25.7"/>
	<polygon class="st0" points="233.7,22.9 229.9,22.9 214.6,38.7 214.6,12 211.7,12 211.7,48.6 214.6,48.6 214.6,42.3 220.5,36.4
		230.3,48.5 230.3,48.6 234,48.6 222.5,34.3 	"/>
	<path class="st0" d="M251.1,22.3c-3.8,0-6.8,1.6-8.8,4.7V12h-2.9v36.5h2.9V33.8c0-5,3.7-8.7,8.5-8.7c4.9,0,7.8,3.1,7.8,8.4v15.2
		h2.9V32.9C261.4,26.5,257.4,22.3,251.1,22.3z"/>
	<rect x="275.1" y="14.8" class="st0" width="3.9" height="4.4"/>
	<path class="st0" d="M281.1,22.3c-7.4,0-13.2,5.9-13.2,13.4v0.1c0,7.5,5.8,13.3,13.1,13.3c7.4,0,13.2-5.9,13.2-13.4v-0.1
		C294.3,28.2,288.5,22.3,281.1,22.3z M281.1,46.4c-5.7,0-10.1-4.7-10.1-10.7v-0.1c0-5.9,4.4-10.6,10-10.6c5.7,0,10.1,4.7,10.1,10.7
		v0.1C291.2,41.8,286.8,46.4,281.1,46.4z"/>
	<rect x="283.2" y="14.8" class="st0" width="3.9" height="4.4"/>
	<path class="st0" d="M322.3,27.5c-1.9-2.5-5.2-5.1-10.3-5.1c-5.9,0-12.3,4.7-12.3,12.2v0.1c0,5.9,4.6,12.1,12.3,12.1
		c4.1,0,7.6-1.8,10.3-5.3v2.9c0,6-3.6,9.5-9.6,9.5c-3.6,0-7-1.2-10-3.5l-0.2-0.2l-1.7,2.4l0.2,0.1c3.5,2.6,7.4,3.9,11.7,3.9
		c3.8,0,7.1-1.2,9.3-3.4c2.1-2.1,3.3-5.2,3.3-8.7V22.9h-2.9V27.5z M312.2,25.1c6.4,0,10.2,4.7,10.2,9.3v0.1c0,5.8-5.3,9.3-10.2,9.3
		c-5.3,0-9.5-4.1-9.5-9.4v-0.1C302.7,29,306.7,25.1,312.2,25.1z"/>
	<path class="st0" d="M342.7,34.1c-3.4-1-6.8-2-6.8-4.7v-0.1c0-2.4,2.3-4.2,5.5-4.2c2.5,0,5.2,0.9,7.6,2.5l0.2,0.1l1.5-2.4l-0.2-0.1
		c-2.6-1.7-6.1-2.8-9.1-2.8c-5,0-8.5,3-8.5,7.2v0.1c0,4.6,4.6,5.9,8.6,7.1l0.2,0.1c3.6,1,6.5,2.1,6.5,4.8v0.1c0,2.7-2.4,4.6-5.8,4.6
		c-3.1,0-6.1-1.1-8.9-3.3l-0.2-0.1l-1.7,2.3l0.2,0.1c2.8,2.3,6.9,3.7,10.5,3.7c5.2,0,8.9-3.2,8.9-7.6v-0.1
		C351.2,36.8,347,35.3,342.7,34.1z"/>
	<polygon class="st0" points="380.5,22.9 376.6,22.9 361.3,38.7 361.3,12 358.4,12 358.4,48.6 361.3,48.6 361.3,42.3 367.2,36.4
		377,48.5 377.1,48.6 380.8,48.6 369.2,34.3 	"/>
	<path class="st0" d="M396.4,22.3c-7.4,0-13.2,5.9-13.2,13.4v0.1c0,7.5,5.8,13.3,13.1,13.3c7.4,0,13.2-5.9,13.2-13.4v-0.1
		C409.5,28.2,403.7,22.3,396.4,22.3z M396.4,46.4c-5.7,0-10.1-4.7-10.1-10.7v-0.1c0-5.9,4.4-10.6,10-10.6c5.7,0,10.1,4.7,10.1,10.7
		v0.1C406.4,41.8,402,46.4,396.4,46.4z"/>
	<rect x="416.8" y="12" class="st0" width="2.9" height="36.5"/>
	<path class="st0" d="M438.2,22.5c-3.8,0-6.7,1.1-9,2.2l-0.2,0.1l1.1,2.6l0.2-0.1c2.7-1.4,5.1-2,7.8-2c5.2,0,8.1,2.6,8.1,7.5v0.8
		c-2.1-0.5-4.5-1-8.1-1c-6.9,0-11.3,3.2-11.3,8.4V41c0,4,3.4,8.1,10,8.1c5,0,7.9-2.5,9.4-4.3v3.7h2.9V32.6c0-3.1-0.9-5.5-2.6-7.3
		C444.4,23.5,441.7,22.5,438.2,22.5z M437.8,35.1c3.5,0,6.3,0.6,8.3,1.1v2.7c0,4.3-4,7.5-9.3,7.5c-3.5,0-7.1-1.9-7.1-5.5v-0.1
		C429.8,37.3,432.9,35.1,437.8,35.1z"/>
	<path class="st0" d="M468.9,22.3c-3.8,0-6.8,1.6-8.8,4.7v-4.1h-2.9v25.7h2.9V33.8c0-5,3.7-8.7,8.5-8.7c4.9,0,7.8,3.1,7.8,8.4v15.2
		h2.9V32.9C479.2,26.5,475.2,22.3,468.9,22.3z"/>
</g>
</svg>
