<?xml version="1.0" encoding="utf-8"?>
<!-- Generator: Adobe Illustrator 22.0.1, SVG Export Plug-In . SVG Version: 6.00 Build 0)  -->
<svg version="1.1" id="Lager_1" xmlns="http://www.w3.org/2000/svg" xmlns:xlink="http://www.w3.org/1999/xlink" x="0px" y="0px"
	 viewBox="0 0 580 56.5" style="enable-background:new 0 0 580 56.5;" xml:space="preserve">
<style type="text/css">
	.st0{fill:#fff;}
</style>
<g>
	<path class="st0" d="M0.8,12.8H14l6.8,20.8l6.8-20.8h13L26.4,48.6H15L0.8,12.8z"/>
	<path class="st0" d="M41.4,0.3h12.5v17.3c2.3-3,5.6-5.7,10.7-5.7c7.6,0,12.1,5,12.1,13.1v23.3H64.2V29.1c0-3.9-2-6-5-6
		c-3,0-5.3,2.1-5.3,6v19.3H41.4V0.3z"/>
	<circle class="st0" cx="86.6" cy="40.8" r="7.8"/>
</g>
<g>
	<polygon class="st0" points="120.3,44.6 111,22.6 107.6,22.6 119.1,48.2 119.1,48.3 121.5,48.3 132.8,22.9 133,22.6 129.8,22.6
		"/>
	<path class="st0" d="M146.3,22.2c-3.8,0-6.7,1.1-9,2.2l-0.2,0.1l1.1,2.6l0.2-0.1c2.7-1.4,5.1-2,7.8-2c5.2,0,8,2.6,8,7.4v0.8
		c-2.1-0.5-4.5-1-8.1-1c-6.9,0-11.2,3.2-11.2,8.4v0.1c0,4,3.4,8.1,9.9,8.1c4.9,0,7.9-2.5,9.3-4.3v3.7h2.9V32.2
		c0-3.1-0.9-5.5-2.6-7.3C152.6,23.1,149.8,22.2,146.3,22.2z M146,34.8c3.5,0,6.2,0.6,8.3,1.1v2.7c0,4.3-4,7.5-9.2,7.5
		c-3.5,0-7-1.9-7-5.5v-0.1C138,36.9,141.1,34.8,146,34.8z"/>
	<path class="st0" d="M146.9,19c2.7,0,5.1-2.2,5.1-4.8V14c0-2.6-2.3-4.8-5.1-4.8s-5.1,2.2-5.1,4.8v0.1C141.9,16.8,144.2,19,146.9,19
		z M146.9,11.3c1.5,0,2.8,1.3,2.8,2.8v0.1c0,1.5-1.3,2.8-2.8,2.8s-2.8-1.3-2.8-2.8V14C144.1,12.5,145.4,11.3,146.9,11.3z"/>
	<path class="st0" d="M168.1,28.9v-6.3h-2.9v25.6h2.9V37.6c0-8.5,5.3-12.3,10.6-12.3h0.5v-3.1l-0.2,0
		C174.6,22,170.4,24.6,168.1,28.9z"/>
	<path class="st0" d="M204.6,27.4c-2.6-3.6-6-5.5-10.1-5.5c-6.1,0-12.4,5-12.4,13.4v0.1c0,8.3,6.3,13.3,12.4,13.3
		c4.1,0,7.4-1.8,10.1-5.6v5.1h2.9V11.7h-2.9V27.4z M194.7,24.8c6.2,0,10,5.5,10,10.5v0.1c0,6.5-5.2,10.5-10,10.5
		c-5.5,0-9.6-4.5-9.6-10.6v-0.1C185.2,29.1,189.1,24.8,194.7,24.8z"/>
	<path class="st0" d="M226,44.6l-10.3-22.1h-3.4l12.2,25.2c-1.8,4.1-3.4,5.6-5.9,5.6c-1.9,0-2.9-0.3-4.2-0.9l-0.2-0.1l-1,2.6
		l0.2,0.1c1.8,0.8,3.2,1.1,5.1,1.1c3.9,0,6.4-2.2,8.6-7.3l10.9-26l0.1-0.3h-3.2L226,44.6z"/>
	<path class="st0" d="M245,28.9v-6.3h-2.9v25.6h2.9V37.6c0-8.5,5.3-12.3,10.6-12.3h0.5v-3.1l-0.2,0C251.4,22,247.3,24.6,245,28.9z"
		/>
	<polygon class="st0" points="283.8,22.6 279.9,22.6 264.7,38.3 264.7,11.7 261.8,11.7 261.8,48.1 264.7,48.1 264.7,41.9 270.5,36
		280.3,48 280.4,48.1 284.1,48.1 272.6,33.9 	"/>
	<path class="st0" d="M298.5,22c-6.8,0-12.1,5.9-12.1,13.3v0.1c0,7.6,5.4,13.3,12.5,13.3c4.3,0,7.4-1.4,10.6-4.8l0.2-0.2l-2-1.8
		l-0.2,0.2c-2.5,2.6-5.1,3.9-8.4,3.9c-5.2,0-9.1-3.8-9.6-9.4h20.8l0-0.2c0.1-0.4,0.1-0.6,0.1-1C310.3,27.5,305.5,22,298.5,22z
		 M307.2,33.9h-17.7c0.5-5.4,4.3-9.2,9-9.2C304.3,24.7,306.8,29.6,307.2,33.9z"/>
	<path class="st0" d="M325.7,33.7c-3.3-1-6.8-2-6.8-4.6v-0.1c0-2.4,2.2-4.1,5.5-4.1c2.5,0,5.2,0.9,7.6,2.5l0.2,0.1l1.5-2.4l-0.2-0.1
		c-2.6-1.7-6.1-2.8-9-2.8c-5,0-8.5,3-8.5,7.2v0.1c0,4.6,4.6,5.9,8.6,7.1l0.2,0.1c3.5,1,6.5,2,6.5,4.8v0.1c0,2.7-2.4,4.5-5.8,4.5
		c-3.1,0-6-1.1-8.9-3.2l-0.2-0.2l-1.7,2.3l0.2,0.1c2.8,2.2,6.9,3.7,10.4,3.7c5.2,0,8.9-3.2,8.9-7.6v-0.1
		C334.1,36.4,329.9,34.9,325.7,33.7z"/>
	<path class="st0" d="M353,22c-3.8,0-6.8,1.6-8.8,4.6V11.7h-2.9v36.4h2.9V33.4c0-5,3.6-8.7,8.5-8.7c4.8,0,7.7,3.1,7.7,8.3v15.2h2.9
		V32.5C363.3,26.1,359.2,22,353,22z"/>
	<path class="st0" d="M382.9,22c-7.4,0-13.2,5.9-13.2,13.4v0.1c0,7.4,5.7,13.3,13.1,13.3c7.4,0,13.2-5.9,13.2-13.4v-0.1
		C396,27.8,390.2,22,382.9,22z M382.9,46c-5.7,0-10.1-4.7-10.1-10.6v-0.1c0-5.9,4.4-10.5,10-10.5c5.7,0,10.1,4.7,10.1,10.6v0.1
		C392.9,41.3,388.5,46,382.9,46z"/>
	<rect x="376.9" y="14.4" class="st0" width="3.9" height="4.4"/>
	<rect x="384.9" y="14.4" class="st0" width="3.9" height="4.4"/>
	<path class="st0" d="M423.8,27.1c-1.9-2.5-5.1-5.1-10.2-5.1c-5.9,0-12.3,4.6-12.3,12.2v0.1c0,5.9,4.6,12.1,12.3,12.1
		c4.1,0,7.6-1.8,10.2-5.3v2.9c0,5.9-3.6,9.5-9.6,9.5c-3.6,0-7-1.2-10-3.5l-0.2-0.2l-1.7,2.4l0.2,0.1c3.5,2.6,7.4,3.9,11.7,3.9
		c3.8,0,7.1-1.2,9.3-3.4c2.1-2.1,3.3-5.1,3.3-8.7V22.6h-2.9V27.1z M413.8,24.8c6.3,0,10.1,4.7,10.1,9.3v0.1c0,5.7-5.3,9.3-10.1,9.3
		c-5.3,0-9.4-4.1-9.4-9.3V34C404.4,28.7,408.4,24.8,413.8,24.8z"/>
	<path class="st0" d="M444.2,33.7c-3.3-1-6.8-2-6.8-4.6v-0.1c0-2.4,2.2-4.1,5.5-4.1c2.5,0,5.2,0.9,7.6,2.5l0.2,0.1l1.5-2.4l-0.2-0.1
		c-2.6-1.7-6.1-2.8-9-2.8c-5,0-8.5,3-8.5,7.2v0.1c0,4.6,4.6,5.9,8.6,7.1l0.2,0.1c3.5,1,6.5,2,6.5,4.8v0.1c0,2.7-2.4,4.5-5.8,4.5
		c-3.1,0-6-1.1-8.8-3.2l-0.2-0.2l-1.7,2.3l0.2,0.1c2.8,2.2,6.9,3.7,10.4,3.7c5.2,0,8.9-3.2,8.9-7.6v-0.1
		C452.7,36.4,448.5,34.9,444.2,33.7z"/>
	<polygon class="st0" points="481.8,22.6 477.9,22.6 462.7,38.3 462.7,11.7 459.8,11.7 459.8,48.1 462.7,48.1 462.7,41.9 468.6,36
		478.3,48 478.4,48.1 482.1,48.1 470.6,33.9 	"/>
	<path class="st0" d="M497.6,22c-7.4,0-13.2,5.9-13.2,13.4v0.1c0,7.4,5.7,13.3,13.1,13.3c7.4,0,13.2-5.9,13.2-13.4v-0.1
		C510.7,27.8,505,22,497.6,22z M497.6,46c-5.7,0-10.1-4.7-10.1-10.6v-0.1c0-5.9,4.4-10.5,10-10.5c5.7,0,10.1,4.7,10.1,10.6v0.1
		C507.6,41.3,503.2,46,497.6,46z"/>
	<rect x="518" y="11.7" class="st0" width="2.9" height="36.4"/>
	<path class="st0" d="M539.2,22.2c-3.8,0-6.7,1.1-9,2.2l-0.2,0.1l1.1,2.6l0.2-0.1c2.7-1.4,5.1-2,7.8-2c5.2,0,8,2.6,8,7.4v0.8
		c-2.1-0.5-4.5-1-8.1-1c-6.9,0-11.2,3.2-11.2,8.4v0.1c0,4,3.4,8.1,9.9,8.1c4.9,0,7.9-2.5,9.3-4.3v3.7h2.9V32.2
		c0-3.1-0.9-5.5-2.6-7.3C545.4,23.1,542.7,22.2,539.2,22.2z M538.9,34.8c3.5,0,6.2,0.6,8.3,1.1v2.7c0,4.3-4,7.5-9.2,7.5
		c-3.5,0-7-1.9-7-5.5v-0.1C530.9,36.9,533.9,34.8,538.9,34.8z"/>
	<path class="st0" d="M569.8,22c-3.8,0-6.8,1.6-8.8,4.6v-4h-2.9v25.6h2.9V33.4c0-5,3.6-8.7,8.5-8.7c4.8,0,7.7,3.1,7.7,8.3v15.2h2.9
		V32.5C580.1,26.1,576.1,22,569.8,22z"/>
</g>
</svg>
