<?xml version="1.0" encoding="utf-8"?>
<!-- Generator: Adobe Illustrator 22.0.1, SVG Export Plug-In . SVG Version: 6.00 Build 0)  -->
<svg version="1.1" id="Lager_1" xmlns="http://www.w3.org/2000/svg" xmlns:xlink="http://www.w3.org/1999/xlink" x="0px" y="0px"
	 viewBox="0 0 290.67 191.42" style="enable-background:new 0 0 290.67 191.42;" xml:space="preserve">
<style type="text/css">
	.st0{fill:#fff;}
</style>
<g>
	<path class="st0" d="M2.51,39.53h40.24l20.93,63.58L84.6,39.53h39.64L80.78,149.19H45.97L2.51,39.53z"/>
	<path class="st0" d="M126.88,1.5h38.23v52.92c7.04-9.05,17.1-17.3,32.6-17.3c23.14,0,37.02,15.29,37.02,40.04v71.23H196.5V89.43
		c0-11.87-6.24-18.31-15.29-18.31c-9.26,0-16.1,6.44-16.1,18.31v58.96h-38.23V1.5z"/>
	<circle class="st0" cx="265.09" cy="125.19" r="24"/>
</g>
<g>
	<polygon class="st0" points="9.27,183.16 3.59,169.76 1.55,169.76 8.51,185.38 8.55,185.47 10,185.47 16.9,169.97 17,169.76
		15.02,169.76 	"/>
	<path class="st0" d="M25.13,169.52c-2.31,0-4.07,0.67-5.49,1.33l-0.13,0.06l0.66,1.57l0.14-0.07c1.62-0.83,3.12-1.21,4.73-1.21
		c3.15,0,4.88,1.61,4.88,4.52v0.46c-1.26-0.33-2.74-0.62-4.91-0.62c-4.21,0-6.83,1.96-6.83,5.12v0.06c0,2.46,2.08,4.95,6.05,4.95
		c3.01,0,4.79-1.5,5.69-2.61v2.25h1.74v-9.68c0-1.9-0.52-3.34-1.6-4.42C28.93,170.12,27.22,169.52,25.13,169.52z M24.92,177.19
		c2.13,0,3.8,0.34,5.03,0.66v1.62c0,2.6-2.42,4.55-5.63,4.55c-2.13,0-4.29-1.15-4.29-3.36v-0.06
		C20.03,178.5,21.9,177.19,24.92,177.19z"/>
	<path class="st0" d="M25.48,167.57c1.67,0,3.09-1.35,3.09-2.94v-0.06c0-1.59-1.41-2.94-3.09-2.94s-3.09,1.35-3.09,2.94v0.06
		C22.4,166.23,23.81,167.57,25.48,167.57z M25.48,162.9c0.93,0,1.71,0.77,1.71,1.68v0.06c0,0.89-0.8,1.68-1.71,1.68
		s-1.71-0.78-1.71-1.68v-0.06C23.78,163.67,24.56,162.9,25.48,162.9z"/>
	<path class="st0" d="M38.4,173.6v-3.84h-1.77v15.58h1.77v-6.41c0-5.17,3.25-7.49,6.47-7.49h0.3v-1.91l-0.14,0
		C42.32,169.4,39.79,171,38.4,173.6z"/>
	<path class="st0" d="M60.61,172.72c-1.59-2.21-3.65-3.32-6.14-3.32c-3.73,0-7.58,3.05-7.58,8.15v0.06c0,5.06,3.86,8.09,7.58,8.09
		c2.48,0,4.49-1.13,6.14-3.44v3.08h1.77v-22.18h-1.77V172.72z M54.62,171.11c3.76,0,6.08,3.33,6.08,6.41v0.06
		c0,3.96-3.16,6.41-6.08,6.41c-3.33,0-5.84-2.77-5.84-6.44v-0.06C48.77,173.73,51.17,171.11,54.62,171.11z"/>
	<path class="st0" d="M73.63,183.2l-6.25-13.44h-2.04l7.42,15.35c-1.08,2.51-2.06,3.44-3.61,3.44c-1.17,0-1.79-0.19-2.54-0.55
		l-0.15-0.07l-0.62,1.57l0.13,0.06c1.1,0.48,1.96,0.67,3.09,0.67c2.36,0,3.92-1.33,5.23-4.44l6.62-15.82l0.09-0.21h-1.94
		L73.63,183.2z"/>
	<path class="st0" d="M85.24,173.6v-3.84h-1.77v15.58h1.77v-6.41c0-5.17,3.25-7.49,6.47-7.49h0.3v-1.91l-0.14,0
		C89.16,169.4,86.63,171,85.24,173.6z"/>
	<polygon class="st0" points="108.86,169.76 106.49,169.76 97.23,179.34 97.23,163.17 95.46,163.17 95.46,185.35 97.23,185.35
		97.23,181.54 100.78,177.96 106.73,185.29 106.78,185.35 109.02,185.35 102.02,176.69 	"/>
	<path class="st0" d="M117.85,169.4c-4.15,0-7.4,3.57-7.4,8.12v0.06c0,4.63,3.29,8.12,7.64,8.12c2.61,0,4.53-0.88,6.43-2.92
		l0.1-0.11l-1.24-1.1l-0.1,0.11c-1.5,1.6-3.13,2.35-5.13,2.35c-3.15,0-5.52-2.34-5.83-5.72h12.65l0.02-0.13
		c0.03-0.25,0.03-0.35,0.03-0.62C125.01,172.75,122.07,169.4,117.85,169.4z M123.11,176.68h-10.79c0.33-3.27,2.61-5.63,5.47-5.63
		C121.36,171.05,122.88,174.05,123.11,176.68z"/>
	<path class="st0" d="M134.37,176.54c-2.04-0.59-4.15-1.19-4.15-2.82v-0.06c0-1.48,1.37-2.52,3.33-2.52c1.51,0,3.15,0.53,4.62,1.5
		l0.13,0.08l0.94-1.48l-0.12-0.08c-1.58-1.05-3.69-1.7-5.51-1.7c-3.05,0-5.18,1.8-5.18,4.38v0.06c0,2.79,2.77,3.59,5.22,4.3
		l0.13,0.04c2.15,0.61,3.94,1.25,3.94,2.91v0.06c0,1.62-1.45,2.76-3.54,2.76c-1.87,0-3.69-0.67-5.39-1.98l-0.12-0.09l-1.05,1.41
		l0.11,0.09c1.68,1.37,4.18,2.25,6.36,2.25c3.14,0,5.42-1.94,5.42-4.62v-0.06C139.52,178.21,136.98,177.27,134.37,176.54z"/>
	<path class="st0" d="M151.02,169.4c-2.33,0-4.13,0.95-5.36,2.82v-9.06h-1.77v22.18h1.77v-8.99c0-3.02,2.22-5.3,5.15-5.3
		c2.95,0,4.71,1.89,4.71,5.06v9.23h1.77v-9.5C157.29,171.93,154.83,169.4,151.02,169.4z"/>
	<path class="st0" d="M169.24,169.4c-4.5,0-8.03,3.58-8.03,8.15v0.06c0,4.54,3.5,8.09,7.97,8.09c4.5,0,8.03-3.58,8.03-8.15v-0.06
		C177.22,172.96,173.71,169.4,169.24,169.4z M169.24,184.02c-3.45,0-6.14-2.84-6.14-6.47v-0.06c0-3.6,2.67-6.41,6.08-6.41
		c3.45,0,6.14,2.84,6.14,6.47v0.06C175.33,181.21,172.66,184.02,169.24,184.02z"/>
	<rect x="165.59" y="164.82" class="st0" width="2.37" height="2.7"/>
	<rect x="170.47" y="164.82" class="st0" width="2.37" height="2.7"/>
	<path class="st0" d="M194.18,172.51c-1.16-1.5-3.13-3.11-6.23-3.11c-3.6,0-7.49,2.83-7.49,7.4v0.06c0,3.61,2.8,7.34,7.49,7.34
		c2.47,0,4.62-1.11,6.23-3.23v1.76c0,3.62-2.18,5.78-5.84,5.78c-2.2,0-4.25-0.71-6.08-2.13l-0.12-0.09l-1.05,1.44l0.12,0.09
		c2.11,1.57,4.5,2.37,7.1,2.37c2.3,0,4.31-0.74,5.65-2.08c1.3-1.3,1.99-3.13,1.99-5.29v-13.07h-1.77V172.51z M188.09,171.11
		c3.86,0,6.17,2.88,6.17,5.66v0.06c0,3.5-3.2,5.66-6.17,5.66c-3.23,0-5.75-2.5-5.75-5.69v-0.06
		C182.34,173.48,184.76,171.11,188.09,171.11z"/>
	<path class="st0" d="M206.6,176.54c-2.04-0.59-4.15-1.19-4.15-2.82v-0.06c0-1.48,1.37-2.52,3.33-2.52c1.51,0,3.15,0.53,4.62,1.5
		l0.13,0.08l0.94-1.48l-0.12-0.08c-1.58-1.05-3.69-1.7-5.51-1.7c-3.05,0-5.18,1.8-5.18,4.38v0.06c0,2.79,2.77,3.59,5.22,4.3
		l0.13,0.04c2.15,0.61,3.94,1.25,3.94,2.91v0.06c0,1.62-1.45,2.76-3.54,2.76c-1.87,0-3.68-0.67-5.39-1.98l-0.12-0.09l-1.05,1.41
		l0.11,0.09c1.68,1.37,4.17,2.25,6.36,2.25c3.14,0,5.42-1.94,5.42-4.62v-0.06C211.74,178.21,209.2,177.27,206.6,176.54z"/>
	<polygon class="st0" points="229.51,169.76 227.14,169.76 217.88,179.34 217.88,163.17 216.11,163.17 216.11,185.35 217.88,185.35
		217.88,181.54 221.44,177.96 227.38,185.29 227.43,185.35 229.67,185.35 222.67,176.69 	"/>
	<path class="st0" d="M239.13,169.4c-4.5,0-8.03,3.58-8.03,8.15v0.06c0,4.54,3.5,8.09,7.97,8.09c4.5,0,8.03-3.58,8.03-8.15v-0.06
		C247.1,172.96,243.6,169.4,239.13,169.4z M239.13,184.02c-3.45,0-6.14-2.84-6.14-6.47v-0.06c0-3.6,2.67-6.41,6.08-6.41
		c3.45,0,6.14,2.84,6.14,6.47v0.06C245.21,181.21,242.54,184.02,239.13,184.02z"/>
	<rect x="251.54" y="163.17" class="st0" width="1.77" height="22.18"/>
	<path class="st0" d="M264.48,169.52c-2.31,0-4.07,0.67-5.49,1.33l-0.13,0.06l0.66,1.57l0.14-0.07c1.62-0.83,3.12-1.21,4.73-1.21
		c3.15,0,4.88,1.61,4.88,4.52v0.46c-1.26-0.33-2.74-0.62-4.92-0.62c-4.21,0-6.83,1.96-6.83,5.12v0.06c0,2.46,2.08,4.95,6.05,4.95
		c3.01,0,4.79-1.5,5.69-2.61v2.25h1.74v-9.68c0-1.9-0.52-3.34-1.6-4.42C268.27,170.1,266.61,169.52,264.48,169.52z M264.27,177.19
		c2.13,0,3.8,0.34,5.03,0.66v1.62c0,2.6-2.42,4.55-5.63,4.55c-2.13,0-4.29-1.15-4.29-3.36v-0.06
		C259.39,178.5,261.26,177.19,264.27,177.19z"/>
	<path class="st0" d="M283.12,169.4c-2.33,0-4.13,0.95-5.36,2.82v-2.46h-1.77v15.58h1.77v-8.99c0-3.02,2.21-5.3,5.15-5.3
		c2.95,0,4.71,1.89,4.71,5.06v9.23h1.77v-9.5C289.39,171.93,286.93,169.4,283.12,169.4z"/>
</g>
</svg>
