<?xml version="1.0" encoding="utf-8"?>
<!-- Generator: Adobe Illustrator 19.2.0, SVG Export Plug-In . SVG Version: 6.00 Build 0)  -->
<!DOCTYPE svg PUBLIC "-//W3C//DTD SVG 1.1//EN" "http://www.w3.org/Graphics/SVG/1.1/DTD/svg11.dtd">
<svg version="1.1" id="Layer_1" xmlns="http://www.w3.org/2000/svg" xmlns:xlink="http://www.w3.org/1999/xlink" x="0px" y="0px"
	 viewBox="0 0 248.598 25" style="enable-background:new 0 0 248.598 25;" xml:space="preserve">
<style type="text/css">
	.st0{fill:#FFFFFF;}
</style>
<g>
	<path class="st0" d="M3.716,4.437c0,2.452,1.987,4.438,4.438,4.438c2.451,0,4.438-1.986,4.438-4.438C12.592,1.987,10.605,0,8.154,0
		C5.703,0,3.716,1.987,3.716,4.437"/>
	<path class="st0" d="M8.57,19.884v-5.75c0-2.3,1.161-4.234,2.746-4.846h-7.6C1.664,9.288,0,11.494,0,14.217v5.613
		c0,1.809,7.379,2.414,12.333,1.82C10.142,21.318,8.57,20.729,8.57,19.884"/>
	<path class="st0" d="M26.938,19.833c0,2.721-16.72,2.721-16.72,0v-5.614c0-2.722,1.663-4.929,3.715-4.929h9.289
		c2.053,0,3.715,2.207,3.715,4.929V19.833z"/>
	<path class="st0" d="M13.934,4.44c0,2.452,1.987,4.438,4.438,4.438c2.451,0,4.438-1.986,4.438-4.438
		c0-2.451-1.987-4.438-4.438-4.438C15.921,0.002,13.934,1.988,13.934,4.44"/>
	<path class="st0" d="M34.428,7.653l1.597,5.546c0.29,1.026,0.484,1.954,0.677,2.908h0.073c0.194-0.978,0.387-1.882,0.653-2.908
		l1.524-5.546h3.87L38.419,19.6h-3.676L30.437,7.653H34.428z"/>
	<path class="st0" d="M54.192,16.718c0,1.124,0.048,2.224,0.193,2.883h-3.314l-0.218-1.197h-0.073
		c-0.774,0.952-1.983,1.466-3.386,1.466c-2.395,0-3.822-1.759-3.822-3.665c0-3.103,2.757-4.569,6.942-4.569v-0.147
		c0-0.66-0.339-1.564-2.153-1.564c-1.209,0-2.491,0.416-3.265,0.904L44.42,8.435c0.822-0.464,2.443-1.075,4.596-1.075
		c3.942,0,5.176,2.346,5.176,5.18V16.718z M46.5,4.061c0-1.368,0.991-2.443,2.83-2.443c1.742,0,2.709,1.05,2.709,2.419
		c0,1.368-1.065,2.395-2.733,2.395C47.564,6.431,46.5,5.405,46.5,4.061z M50.636,13.957c-1.935,0-3.434,0.464-3.434,1.882
		c0,0.952,0.629,1.417,1.451,1.417c0.919,0,1.669-0.61,1.911-1.368c0.048-0.195,0.073-0.415,0.073-0.635V13.957z M50.394,4.037
		c0-0.611-0.387-1.197-1.137-1.197c-0.702,0-1.064,0.586-1.064,1.221c0,0.562,0.411,1.148,1.088,1.148
		C49.983,5.21,50.394,4.672,50.394,4.037z"/>
	<path class="st0" d="M57.121,11.587c0-1.759-0.024-2.908-0.097-3.934h3.144l0.145,2.199h0.097c0.605-1.759,2.032-2.492,3.193-2.492
		c0.339,0,0.508,0.024,0.774,0.073v3.494c-0.29-0.049-0.58-0.098-0.991-0.098c-1.355,0-2.274,0.733-2.515,1.882
		c-0.048,0.244-0.073,0.538-0.073,0.83V19.6h-3.676V11.587z"/>
	<path class="st0" d="M77.585,2.253v13.78c0,1.344,0.048,2.761,0.097,3.567h-3.265l-0.146-1.735h-0.073
		c-0.726,1.32-2.176,2.004-3.7,2.004c-2.806,0-5.055-2.419-5.055-6.132C65.419,9.705,67.91,7.36,70.74,7.36
		c1.476,0,2.588,0.538,3.12,1.344h0.048V2.253H77.585z M73.908,12.711c0-0.196,0-0.465-0.048-0.684
		c-0.218-0.977-1.016-1.808-2.153-1.808c-1.693,0-2.54,1.515-2.54,3.396c0,2.028,0.992,3.299,2.515,3.299
		c1.064,0,1.935-0.733,2.153-1.784c0.048-0.269,0.073-0.562,0.073-0.855V12.711z"/>
	<path class="st0" d="M83.295,7.653l1.766,5.888c0.193,0.684,0.435,1.588,0.58,2.223h0.097c0.145-0.659,0.339-1.539,0.508-2.247
		l1.476-5.864h3.918l-2.757,7.867c-1.693,4.764-2.83,6.646-4.161,7.843c-1.257,1.124-2.612,1.539-3.531,1.637l-0.798-3.127
		c0.459-0.098,1.04-0.317,1.596-0.635c0.556-0.293,1.185-0.904,1.524-1.49c0.121-0.195,0.193-0.391,0.193-0.538
		c0-0.147-0.024-0.317-0.145-0.61L79.208,7.653H83.295z"/>
	<path class="st0" d="M93.191,11.587c0-1.759-0.024-2.908-0.097-3.934h3.144l0.145,2.199h0.097c0.605-1.759,2.032-2.492,3.193-2.492
		c0.339,0,0.508,0.024,0.774,0.073v3.494c-0.29-0.049-0.58-0.098-0.992-0.098c-1.354,0-2.274,0.733-2.515,1.882
		c-0.048,0.244-0.073,0.538-0.073,0.83V19.6h-3.676V11.587z"/>
	<path class="st0" d="M105.988,12.686h0.048c0.266-0.512,0.556-1.001,0.846-1.441l2.395-3.591h4.426l-4.233,4.838l4.837,7.109
		h-4.523l-2.878-4.911l-0.919,1.172V19.6h-3.676V2.253h3.676V12.686z"/>
	<path class="st0" d="M117.914,14.812c0.097,1.538,1.621,2.272,3.338,2.272c1.258,0,2.274-0.171,3.265-0.514l0.484,2.517
		c-1.209,0.513-2.685,0.757-4.281,0.757c-4.015,0-6.313-2.345-6.313-6.084c0-3.029,1.862-6.376,5.974-6.376
		c3.821,0,5.273,3.005,5.273,5.962c0,0.635-0.072,1.198-0.121,1.466H117.914z M122.244,12.271c0-0.904-0.387-2.419-2.08-2.419
		c-1.548,0-2.177,1.442-2.273,2.419H122.244z"/>
	<path class="st0" d="M127.834,16.376c0.677,0.415,2.08,0.879,3.168,0.879c1.113,0,1.573-0.367,1.573-0.977
		c0-0.635-0.363-0.928-1.718-1.393c-2.467-0.83-3.41-2.174-3.386-3.591c0-2.248,1.886-3.934,4.813-3.934
		c1.378,0,2.588,0.342,3.313,0.708l-0.629,2.566c-0.532-0.293-1.572-0.684-2.564-0.684c-0.895,0-1.403,0.366-1.403,0.953
		c0,0.586,0.46,0.879,1.911,1.393c2.25,0.782,3.169,1.954,3.193,3.689c0,2.248-1.717,3.885-5.104,3.885
		c-1.548,0-2.926-0.367-3.821-0.855L127.834,16.376z"/>
	<path class="st0" d="M138.357,2.253h3.677v6.841h0.048c0.387-0.538,0.87-0.953,1.451-1.246c0.556-0.293,1.233-0.464,1.911-0.464
		c2.346,0,4.136,1.637,4.136,5.252V19.6h-3.677v-6.572c0-1.564-0.532-2.638-1.91-2.638c-0.968,0-1.573,0.635-1.839,1.319
		c-0.097,0.22-0.121,0.538-0.121,0.806V19.6h-3.677V2.253z"/>
	<path class="st0" d="M164.216,13.492c0,4.374-3.072,6.377-6.241,6.377c-3.458,0-6.119-2.296-6.119-6.157
		c0-3.884,2.516-6.352,6.337-6.352C161.797,7.36,164.216,9.876,164.216,13.492z M153.767,4.281c0-0.977,0.774-1.71,1.742-1.71
		c0.919,0,1.645,0.733,1.645,1.71c0,0.953-0.701,1.735-1.669,1.735C154.517,6.016,153.767,5.234,153.767,4.281z M155.654,13.615
		c0,2.052,0.847,3.591,2.419,3.591c1.45,0,2.346-1.442,2.346-3.616c0-1.759-0.678-3.567-2.346-3.567
		C156.331,10.023,155.654,11.856,155.654,13.615z M160.539,6.016c-0.943,0-1.668-0.782-1.668-1.735c0-0.977,0.725-1.71,1.717-1.71
		c0.943,0,1.669,0.733,1.669,1.71c0,0.953-0.702,1.735-1.669,1.735H160.539z"/>
	<path class="st0" d="M177.763,17.866c0,2.297-0.46,4.178-1.814,5.376c-1.283,1.124-3.048,1.466-4.79,1.466
		c-1.572,0-3.193-0.317-4.257-0.904l0.725-2.834c0.75,0.44,2.032,0.904,3.435,0.904c1.741,0,3.072-0.929,3.072-3.152v-0.757h-0.048
		c-0.702,0.978-1.838,1.539-3.193,1.539c-2.927,0-5.007-2.395-5.007-5.815c0-3.86,2.443-6.304,5.369-6.304
		c1.621,0,2.637,0.708,3.242,1.71h0.048l0.12-1.442h3.193c-0.048,0.782-0.096,1.783-0.096,3.567V17.866z M174.087,12.515
		c0-0.22-0.025-0.464-0.073-0.684c-0.266-0.978-0.967-1.637-1.983-1.637c-1.354,0-2.419,1.222-2.419,3.396
		c0,1.784,0.871,3.176,2.395,3.176c0.968,0,1.717-0.636,1.959-1.491c0.096-0.293,0.121-0.684,0.121-1.001V12.515z"/>
	<path class="st0" d="M180.693,16.376c0.677,0.415,2.08,0.879,3.168,0.879c1.113,0,1.573-0.367,1.573-0.977
		c0-0.635-0.363-0.928-1.718-1.393c-2.467-0.83-3.41-2.174-3.386-3.591c0-2.248,1.887-3.934,4.814-3.934
		c1.378,0,2.588,0.342,3.313,0.708l-0.628,2.566c-0.532-0.293-1.572-0.684-2.564-0.684c-0.895,0-1.403,0.366-1.403,0.953
		c0,0.586,0.46,0.879,1.911,1.393c2.249,0.782,3.169,1.954,3.193,3.689c0,2.248-1.717,3.885-5.104,3.885
		c-1.548,0-2.927-0.367-3.821-0.855L180.693,16.376z"/>
	<path class="st0" d="M194.893,12.686h0.048c0.266-0.512,0.556-1.001,0.846-1.441l2.395-3.591h4.426l-4.233,4.838l4.838,7.109
		h-4.523l-2.879-4.911l-0.919,1.172V19.6h-3.677V2.253h3.677V12.686z"/>
	<path class="st0" d="M215.673,13.492c0,4.374-3.072,6.377-6.241,6.377c-3.459,0-6.119-2.296-6.119-6.157
		c0-3.884,2.516-6.352,6.337-6.352C213.253,7.36,215.673,9.876,215.673,13.492z M207.11,13.615c0,2.052,0.846,3.591,2.419,3.591
		c1.45,0,2.346-1.442,2.346-3.616c0-1.759-0.678-3.567-2.346-3.567C207.787,10.023,207.11,11.856,207.11,13.615z"/>
	<path class="st0" d="M217.948,2.253h3.677V19.6h-3.677V2.253z"/>
	<path class="st0" d="M234.446,16.718c0,1.124,0.048,2.224,0.193,2.883h-3.313l-0.218-1.197h-0.072
		c-0.774,0.952-1.984,1.466-3.387,1.466c-2.395,0-3.821-1.759-3.821-3.665c0-3.103,2.757-4.569,6.942-4.569v-0.147
		c0-0.66-0.339-1.564-2.153-1.564c-1.209,0-2.491,0.416-3.265,0.904l-0.677-2.394c0.822-0.464,2.443-1.075,4.596-1.075
		c3.942,0,5.176,2.346,5.176,5.18V16.718z M230.891,13.957c-1.936,0-3.435,0.464-3.435,1.882c0,0.952,0.629,1.417,1.451,1.417
		c0.895,0,1.669-0.61,1.911-1.368c0.048-0.195,0.073-0.415,0.073-0.635V13.957z"/>
	<path class="st0" d="M237.375,11.464c0-1.49-0.048-2.736-0.097-3.811h3.193l0.17,1.661h0.073c0.484-0.782,1.668-1.93,3.652-1.93
		c2.419,0,4.233,1.637,4.233,5.155V19.6h-3.677V12.98c0-1.54-0.532-2.59-1.862-2.59c-1.016,0-1.621,0.709-1.887,1.393
		c-0.097,0.244-0.121,0.587-0.121,0.929v6.89h-3.677V11.464z"/>
</g>
</svg>
