<svg id="Layer_1" data-name="Layer 1" xmlns="http://www.w3.org/2000/svg" viewBox="0 0 249.81 26"><defs><style>.cls-1{fill:#fff;}</style></defs><title>vardyrkeshogskolan+en_del_av</title><path class="cls-1" d="M3.73,4.46A4.46,4.46,0,1,0,8.19,0,4.46,4.46,0,0,0,3.73,4.46"/><path class="cls-1" d="M8.61,20V14.2c0-2.31,1.17-4.25,2.76-4.87H3.73c-2.06,0-3.73,2.22-3.73,5v5.64c0,1.82,7.41,2.43,12.39,1.83-2.2-.33-3.78-0.93-3.78-1.77"/><path class="cls-1" d="M27.07,19.93c0,2.73-16.8,2.73-16.8,0V14.29c0-2.73,1.67-5,3.73-5h9.33c2.06,0,3.73,2.22,3.73,5v5.64Z"/><path class="cls-1" d="M14,4.46A4.46,4.46,0,1,0,18.46,0,4.46,4.46,0,0,0,14,4.46"/><path class="cls-1" d="M34.6,7.69l1.6,5.57c0.29,1,.49,2,0.68,2.92H37c0.19-1,.39-1.89.66-2.92l1.53-5.57H43l-4.42,12H34.91l-4.33-12h4Z"/><path class="cls-1" d="M54.46,16.8a15.7,15.7,0,0,0,.19,2.9H51.32l-0.22-1.2H51A4.26,4.26,0,0,1,47.63,20a3.66,3.66,0,0,1-3.84-3.68c0-3.12,2.77-4.59,7-4.59V11.54c0-.66-0.34-1.57-2.16-1.57a6.64,6.64,0,0,0-3.28.91L44.64,8.48A9.68,9.68,0,0,1,49.25,7.4c4,0,5.2,2.36,5.2,5.2v4.2ZM46.73,4.08c0-1.37,1-2.45,2.84-2.45a2.43,2.43,0,0,1,2.72,2.43,2.47,2.47,0,0,1-2.75,2.41C47.8,6.46,46.73,5.43,46.73,4.08ZM50.88,14c-1.94,0-3.45.47-3.45,1.89a1.33,1.33,0,0,0,1.46,1.42A2,2,0,0,0,50.81,16a2.7,2.7,0,0,0,.07-0.64V14Zm-0.24-10a1.13,1.13,0,0,0-1.14-1.2,1.11,1.11,0,0,0-1.07,1.23,1.12,1.12,0,0,0,1.09,1.15A1.1,1.1,0,0,0,50.64,4.06Z"/><path class="cls-1" d="M57.4,11.64c0-1.77,0-2.92-.1-4h3.16L60.61,9.9h0.1a3.47,3.47,0,0,1,3.21-2.5,3.66,3.66,0,0,1,.78.07V11a5.46,5.46,0,0,0-1-.1,2.38,2.38,0,0,0-2.53,1.89,4.44,4.44,0,0,0-.07.83V19.7H57.4V11.64Z"/><path class="cls-1" d="M78,2.26V16.11c0,1.35,0,2.77.1,3.58H74.78L74.63,18H74.56a4.14,4.14,0,0,1-3.72,2c-2.82,0-5.08-2.43-5.08-6.16,0-4.05,2.48-6.41,5.32-6.41a3.64,3.64,0,0,1,3.14,1.35h0V2.26H78ZM74.27,12.77a3.39,3.39,0,0,0,0-.69,2.23,2.23,0,0,0-2.16-1.82c-1.7,0-2.55,1.52-2.55,3.41S70.5,17,72,17a2.19,2.19,0,0,0,2.16-1.79,4.92,4.92,0,0,0,.07-0.86V12.77Z"/><path class="cls-1" d="M83.7,7.69l1.77,5.92c0.19,0.69.44,1.6,0.58,2.23h0.1c0.15-.66.34-1.55,0.51-2.26l1.48-5.89h3.94L89.32,15.6c-1.7,4.79-2.84,6.68-4.18,7.88a6.46,6.46,0,0,1-3.55,1.64L80.78,22a5.85,5.85,0,0,0,1.6-.64,4.28,4.28,0,0,0,1.53-1.5,1.13,1.13,0,0,0,.19-0.54A1.53,1.53,0,0,0,84,18.69l-4.37-11H83.7Z"/><path class="cls-1" d="M93.64,11.64c0-1.77,0-2.92-.1-4h3.16L96.85,9.9h0.1a3.47,3.47,0,0,1,3.21-2.5,3.66,3.66,0,0,1,.78.07V11a5.47,5.47,0,0,0-1-.1,2.38,2.38,0,0,0-2.53,1.89,4.44,4.44,0,0,0-.07.83V19.7H93.64V11.64Z"/><path class="cls-1" d="M106.5,12.75h0a16.24,16.24,0,0,1,.85-1.45l2.41-3.61h4.45L110,12.55l4.86,7.14h-4.54l-2.89-4.93-0.92,1.18V19.7h-3.69V2.26h3.69V12.75Z"/><path class="cls-1" d="M118.49,14.88c0.1,1.55,1.63,2.28,3.35,2.28a9.68,9.68,0,0,0,3.28-.52l0.49,2.53a11.13,11.13,0,0,1-4.3.76c-4,0-6.34-2.36-6.34-6.11,0-3,1.87-6.41,6-6.41,3.84,0,5.3,3,5.3,6a9,9,0,0,1-.12,1.47h-7.66Zm4.35-2.55a2.16,2.16,0,0,0-2.09-2.43,2.46,2.46,0,0,0-2.28,2.43h4.37Z"/><path class="cls-1" d="M128.46,16.46a7.17,7.17,0,0,0,3.18.88c1.12,0,1.58-.37,1.58-1s-0.36-.93-1.73-1.4c-2.48-.83-3.43-2.18-3.4-3.61,0-2.26,1.9-4,4.84-4a7.75,7.75,0,0,1,3.33.71l-0.63,2.58A5.88,5.88,0,0,0,133,10c-0.9,0-1.41.37-1.41,1s0.46,0.88,1.92,1.4c2.26,0.79,3.18,2,3.21,3.71,0,2.26-1.73,3.9-5.13,3.9a8.32,8.32,0,0,1-3.84-.86Z"/><path class="cls-1" d="M139,2.26h3.69V9.14h0a4,4,0,0,1,1.46-1.25,4.19,4.19,0,0,1,1.92-.47c2.36,0,4.16,1.64,4.16,5.28v7h-3.69v-6.6c0-1.57-.53-2.65-1.92-2.65a2,2,0,0,0-1.85,1.33,2.18,2.18,0,0,0-.12.81V19.7H139V2.26Z"/><path class="cls-1" d="M165,13.56A6,6,0,0,1,158.74,20a5.85,5.85,0,0,1-6.15-6.19A6,6,0,0,1,159,7.4,5.81,5.81,0,0,1,165,13.56ZM154.51,4.3a1.71,1.71,0,0,1,1.75-1.72,1.66,1.66,0,0,1,1.65,1.72A1.69,1.69,0,0,1,156.24,6,1.73,1.73,0,0,1,154.51,4.3Zm1.9,9.38c0,2.06.85,3.61,2.43,3.61s2.36-1.45,2.36-3.63c0-1.77-.68-3.58-2.36-3.58S156.41,11.91,156.41,13.68ZM161.32,6a1.7,1.7,0,0,1-1.68-1.74,1.7,1.7,0,1,1,3.4,0A1.69,1.69,0,0,1,161.37,6h0Z"/><path class="cls-1" d="M178.63,18c0,2.31-.46,4.2-1.82,5.4A7.18,7.18,0,0,1,172,24.83a9.43,9.43,0,0,1-4.28-.91l0.73-2.85a7.17,7.17,0,0,0,3.45.91A2.84,2.84,0,0,0,175,18.81V18.05h0a3.83,3.83,0,0,1-3.21,1.55c-2.94,0-5-2.41-5-5.84,0-3.88,2.45-6.33,5.4-6.33a3.54,3.54,0,0,1,3.26,1.72h0l0.12-1.45h3.21c0,0.79-.1,1.79-0.1,3.58V18Zm-3.69-5.38a3.33,3.33,0,0,0-.07-0.69,2,2,0,0,0-2-1.65c-1.36,0-2.43,1.23-2.43,3.41,0,1.79.88,3.19,2.41,3.19a2,2,0,0,0,2-1.5,3.47,3.47,0,0,0,.12-1V12.58Z"/><path class="cls-1" d="M181.57,16.46a7.17,7.17,0,0,0,3.18.88c1.12,0,1.58-.37,1.58-1s-0.36-.93-1.73-1.4c-2.48-.83-3.43-2.18-3.4-3.61,0-2.26,1.9-4,4.84-4a7.74,7.74,0,0,1,3.33.71l-0.63,2.58a5.88,5.88,0,0,0-2.58-.69c-0.9,0-1.41.37-1.41,1s0.46,0.88,1.92,1.4c2.26,0.79,3.18,2,3.21,3.71,0,2.26-1.73,3.9-5.13,3.9a8.32,8.32,0,0,1-3.84-.86Z"/><path class="cls-1" d="M195.84,12.75h0a16.36,16.36,0,0,1,.85-1.45l2.41-3.61h4.45l-4.25,4.86,4.86,7.14h-4.54l-2.89-4.93-0.92,1.18V19.7h-3.7V2.26h3.7V12.75Z"/><path class="cls-1" d="M216.72,13.56A6,6,0,0,1,210.45,20a5.85,5.85,0,0,1-6.15-6.19,6,6,0,0,1,6.37-6.38A5.81,5.81,0,0,1,216.72,13.56Zm-8.6.12c0,2.06.85,3.61,2.43,3.61s2.36-1.45,2.36-3.63c0-1.77-.68-3.58-2.36-3.58S208.12,11.91,208.12,13.68Z"/><path class="cls-1" d="M219,2.26h3.7V19.7H219V2.26Z"/><path class="cls-1" d="M235.59,16.8a15.74,15.74,0,0,0,.19,2.9h-3.33l-0.22-1.2h-0.07a4.26,4.26,0,0,1-3.4,1.47,3.66,3.66,0,0,1-3.84-3.68c0-3.12,2.77-4.59,7-4.59V11.54c0-.66-0.34-1.57-2.16-1.57a6.64,6.64,0,0,0-3.28.91l-0.68-2.41a9.68,9.68,0,0,1,4.62-1.08c4,0,5.2,2.36,5.2,5.2v4.2ZM232,14c-1.95,0-3.45.47-3.45,1.89A1.33,1.33,0,0,0,230,17.34,2,2,0,0,0,231.94,16a2.72,2.72,0,0,0,.07-0.64V14Z"/><path class="cls-1" d="M238.53,11.52c0-1.5,0-2.75-.1-3.83h3.21l0.17,1.67h0.07a4.26,4.26,0,0,1,3.67-1.94c2.43,0,4.25,1.64,4.25,5.18v7.1h-3.69V13c0-1.55-.53-2.6-1.87-2.6a2,2,0,0,0-1.9,1.4,2.71,2.71,0,0,0-.12.93V19.7h-3.69V11.52Z"/><path class="cls-1" d="M127.2,25.9V22.32h3.31v0.44h-2.8v1.07h2.73v0.43h-2.73v1.21h2.93V25.9H127.2Z"/><path class="cls-1" d="M135.75,25.9l-2.81-3s0,2.7,0,3h-0.49V22.32H133l2.79,3s0-2.78,0-3h0.49V25.9h-0.5Z"/><path class="cls-1" d="M140.05,22.32h1.78a2,2,0,0,1,1.23.29,1.71,1.71,0,0,1,.74,1.48,1.81,1.81,0,0,1-.6,1.39,2.52,2.52,0,0,1-1.71.43h-1.43V22.32Zm1.61,3.16a1.65,1.65,0,0,0,1.19-.35,1.43,1.43,0,0,0,.43-1.06,1.24,1.24,0,0,0-.89-1.28,2.24,2.24,0,0,0-.55-0.05h-1.27v2.73h1.1Z"/><path class="cls-1" d="M145.74,25.9V22.32H149v0.44h-2.8v1.07H149v0.43h-2.73v1.21h2.93V25.9h-3.44Z"/><path class="cls-1" d="M151,25.9V22.32h0.51v3.15h2.38V25.9H151Z"/><path class="cls-1" d="M160.43,25.9L160,25h-2.21l-0.44.88h-0.57l1.86-3.59h0.54L161,25.9h-0.59Zm-1.53-3.07L158,24.61h1.77Z"/><path class="cls-1" d="M164.48,25.9H164l-1.72-3.59h0.56l1.42,3,1.38-3h0.56Z"/><path class="cls-1" d="M180.13,22.32h2.25a1.4,1.4,0,0,1,1.2.48,1.09,1.09,0,0,1,.18.61,1,1,0,0,1-.38.81,1.52,1.52,0,0,1-1,.24h-1.72V25.9h-0.52V22.32ZM182.3,24a0.92,0.92,0,0,0,.78-0.25,0.67,0.67,0,0,0,0-.79,1,1,0,0,0-.84-0.25h-1.6V24h1.66Z"/><path class="cls-1" d="M185.5,25.9V22.32H186v3.15h2.38V25.9H185.5Z"/><path class="cls-1" d="M190.53,22.32v2.19a0.77,0.77,0,0,0,.37.8,1.76,1.76,0,0,0,1,.24A1.46,1.46,0,0,0,193.1,25a1.2,1.2,0,0,0,.08-0.52v-2.2h0.51v2.16a1.6,1.6,0,0,1-.1.67,1.75,1.75,0,0,1-1.74.84,1.93,1.93,0,0,1-1.68-.75,1.62,1.62,0,0,1-.15-0.82V22.32h0.51Z"/><path class="cls-1" d="M196,25a1.32,1.32,0,0,0,.57.4,2.82,2.82,0,0,0,1,.17,1.64,1.64,0,0,0,1-.24,0.61,0.61,0,0,0,.24-0.48c0-.46-0.51-0.53-0.92-0.57l-0.55-.05a2,2,0,0,1-1.29-.34,0.77,0.77,0,0,1-.25-0.6,0.9,0.9,0,0,1,.5-0.81,2.55,2.55,0,0,1,1.18-.23,2,2,0,0,1,1.79.72l-0.47.19a1.74,1.74,0,0,0-1.32-.49c-0.53,0-1.18.12-1.18,0.6s0.37,0.45.73,0.48l1.11,0.11a1.05,1.05,0,0,1,1.17,1c0,0.54-.36,1.17-1.76,1.17a2.32,2.32,0,0,1-2-.81Z"/><path class="cls-1" d="M204.44,25.9v-1.7h-2.75v1.7h-0.52V22.32h0.51v1.46h2.75V22.32H205V25.9h-0.51Z"/><path class="cls-1" d="M209.08,26c-1.33,0-2.2-.68-2.2-1.85a2,2,0,0,1,2.16-1.92,2,2,0,0,1,2.2,1.93A1.9,1.9,0,0,1,209.08,26Zm0-3.33a1.46,1.46,0,1,0,0,2.89,1.42,1.42,0,0,0,1.64-1.45A1.47,1.47,0,0,0,209.05,22.67Zm-0.94-.7V21.45h0.49V22h-0.49Zm1.34,0V21.45h0.49V22h-0.49Z"/><path class="cls-1" d="M216.61,25.9V25.41A2.08,2.08,0,0,1,215,26,1.91,1.91,0,0,1,213,24.1a1.93,1.93,0,0,1,2.14-1.87,2.09,2.09,0,0,1,1.9.95l-0.5.15a1.57,1.57,0,0,0-1.36-.66,1.47,1.47,0,0,0-1.64,1.41,1.48,1.48,0,0,0,1.62,1.48,1.56,1.56,0,0,0,1.33-.66,1.09,1.09,0,0,0,.14-0.46H215V24h2V25.9h-0.44Z"/><path class="cls-1" d="M219.21,25a1.33,1.33,0,0,0,.57.4,2.82,2.82,0,0,0,1,.17,1.64,1.64,0,0,0,1-.24,0.61,0.61,0,0,0,.24-0.48c0-.46-0.51-0.53-0.92-0.57l-0.55-.05a2,2,0,0,1-1.29-.34,0.77,0.77,0,0,1-.25-0.6,0.9,0.9,0,0,1,.5-0.81,2.55,2.55,0,0,1,1.18-.23,2,2,0,0,1,1.79.72l-0.47.19a1.74,1.74,0,0,0-1.32-.49c-0.53,0-1.18.12-1.18,0.6s0.37,0.45.73,0.48l1.11,0.11a1.05,1.05,0,0,1,1.17,1c0,0.54-.36,1.17-1.76,1.17a2.32,2.32,0,0,1-2-.81Z"/><path class="cls-1" d="M227.67,25.9L226,24l-1.11.82V25.9h-0.49V22.32h0.5v1.91l2.59-1.91h0.75l-1.81,1.35,1.89,2.24h-0.68Z"/><path class="cls-1" d="M231.92,26c-1.33,0-2.2-.68-2.2-1.85a2,2,0,0,1,2.16-1.92,2,2,0,0,1,2.2,1.93A1.9,1.9,0,0,1,231.92,26Zm0-3.33a1.46,1.46,0,1,0,0,2.89,1.42,1.42,0,0,0,1.64-1.45A1.47,1.47,0,0,0,231.88,22.67Z"/><path class="cls-1" d="M236,25.9V22.32h0.51v3.15h2.38V25.9H236Z"/><path class="cls-1" d="M243.75,25.9L243.31,25h-2.21l-0.44.88H240.1L242,22.32h0.54l1.84,3.59h-0.59Zm-1.53-3.07-0.89,1.78h1.77Z"/><path class="cls-1" d="M249.28,25.9l-2.81-3s0,2.7,0,3H246V22.32h0.52l2.79,3s0-2.78,0-3h0.49V25.9h-0.5Z"/></svg>