<?xml version="1.0" standalone="no"?>
<!DOCTYPE svg PUBLIC "-//W3C//DTD SVG 20010904//EN"
 "http://www.w3.org/TR/2001/REC-SVG-20010904/DTD/svg10.dtd">
<svg version="1.0" xmlns="http://www.w3.org/2000/svg"
 width="533.000000pt" height="533.000000pt" viewBox="0 0 533.000000 533.000000"
 preserveAspectRatio="xMidYMid meet">
<metadata>
Created by potrace 1.11, written by Peter Selinger 2001-2013
</metadata>
<g transform="translate(0.000000,533.000000) scale(0.100000,-0.100000)"
fill="#000000" stroke="none">
<path d="M2204 4091 c-2 -2 -4 -631 -4 -1398 l0 -1393 365 0 365 0 1 578 c0
317 2 591 3 607 12 133 101 244 221 276 53 15 161 6 208 -16 68 -32 132 -116
153 -202 4 -15 9 -293 10 -618 2 -324 3 -598 4 -607 0 -17 24 -18 364 -18
l364 0 -1 713 c0 786 -2 823 -48 961 -47 140 -159 285 -272 350 -55 32 -167
73 -229 84 -57 9 -251 9 -307 -2 -143 -25 -293 -114 -412 -244 l-59 -65 0 499
0 499 -361 0 c-198 0 -363 -2 -365 -4z"/>
<path d="M5322 4045 c0 -16 2 -22 5 -12 2 9 2 23 0 30 -3 6 -5 -1 -5 -18z"/>
<path d="M5322 3885 c0 -16 2 -22 5 -12 2 9 2 23 0 30 -3 6 -5 -1 -5 -18z"/>
<path d="M5322 3725 c0 -16 2 -22 5 -12 2 9 2 23 0 30 -3 6 -5 -1 -5 -18z"/>
<path d="M5322 3565 c0 -16 2 -22 5 -12 2 9 2 23 0 30 -3 6 -5 -1 -5 -18z"/>
<path d="M5322 3405 c0 -16 2 -22 5 -12 2 9 2 23 0 30 -3 6 -5 -1 -5 -18z"/>
<path d="M1007 3404 c-1 -1 -49 -5 -107 -8 -108 -6 -139 -10 -225 -26 -27 -5
-66 -12 -85 -15 -58 -10 -210 -55 -293 -87 -63 -24 -77 -33 -72 -46 4 -10 8
-24 10 -32 16 -64 133 -452 138 -456 3 -3 52 11 108 30 156 53 297 75 459 72
153 -4 172 -7 247 -42 107 -51 160 -136 168 -271 3 -51 6 -50 -105 -20 -30 9
-71 18 -90 21 -19 3 -44 7 -55 10 -39 8 -181 19 -240 19 -147 0 -221 -12 -410
-66 -71 -20 -161 -79 -237 -153 -113 -111 -169 -269 -163 -459 6 -209 83 -370
230 -482 79 -60 214 -113 325 -128 128 -17 303 -2 419 36 95 31 239 120 297
185 12 13 23 24 25 24 2 0 4 -45 4 -100 -1 -60 3 -101 10 -103 5 -2 165 -3
355 -3 l345 1 1 650 c2 737 -1 791 -62 956 -45 120 -142 244 -252 321 -92 64
-255 127 -372 143 -24 4 -47 8 -50 10 -11 7 -316 24 -323 19z m219 -1216 c27
-5 70 -16 96 -24 l48 -16 -4 -86 c-7 -167 -67 -262 -201 -318 -91 -38 -221
-37 -295 1 -93 48 -137 160 -106 269 24 81 90 141 191 172 48 14 203 16 271 2z"/>
<path d="M5322 3245 c0 -16 2 -22 5 -12 2 9 2 23 0 30 -3 6 -5 -1 -5 -18z"/>
<path d="M5322 3085 c0 -16 2 -22 5 -12 2 9 2 23 0 30 -3 6 -5 -1 -5 -18z"/>
<path d="M5322 2925 c0 -16 2 -22 5 -12 2 9 2 23 0 30 -3 6 -5 -1 -5 -18z"/>
<path d="M5322 2765 c0 -16 2 -22 5 -12 2 9 2 23 0 30 -3 6 -5 -1 -5 -18z"/>
<path d="M5322 2605 c0 -16 2 -22 5 -12 2 9 2 23 0 30 -3 6 -5 -1 -5 -18z"/>
<path d="M5322 2445 c0 -16 2 -22 5 -12 2 9 2 23 0 30 -3 6 -5 -1 -5 -18z"/>
<path d="M5322 2285 c0 -16 2 -22 5 -12 2 9 2 23 0 30 -3 6 -5 -1 -5 -18z"/>
<path d="M4700 2199 c-113 -22 -235 -111 -297 -216 -60 -102 -77 -267 -39
-373 69 -189 241 -311 439 -310 193 1 370 133 427 318 19 62 27 169 16 223
-52 249 -293 407 -546 358z"/>
<path d="M5322 2125 c0 -16 2 -22 5 -12 2 9 2 23 0 30 -3 6 -5 -1 -5 -18z"/>
<path d="M5322 1965 c0 -16 2 -22 5 -12 2 9 2 23 0 30 -3 6 -5 -1 -5 -18z"/>
<path d="M5322 1805 c0 -16 2 -22 5 -12 2 9 2 23 0 30 -3 6 -5 -1 -5 -18z"/>
<path d="M5322 1645 c0 -16 2 -22 5 -12 2 9 2 23 0 30 -3 6 -5 -1 -5 -18z"/>
<path d="M5322 1485 c0 -16 2 -22 5 -12 2 9 2 23 0 30 -3 6 -5 -1 -5 -18z"/>
<path d="M5322 1325 c0 -16 2 -22 5 -12 2 9 2 23 0 30 -3 6 -5 -1 -5 -18z"/>
</g>
</svg>
